<svg width="335" height="163" viewBox="0 0 335 163" fill="none" xmlns="http://www.w3.org/2000/svg">
<rect x="0.5" y="0.5" width="222" height="162" rx="3.5" fill="white" stroke="#A0A3B1" stroke-dasharray="2 2"/>
<path d="M0 4C0 1.79086 1.79086 0 4 0H219C221.209 0 223 1.79086 223 4V51H0V4Z" fill="#6CBCFC"/>
<path d="M0 113H223V159C223 161.209 221.209 163 219 163H4.00001C1.79087 163 0 161.209 0 159V113Z" fill="#6CBCFC"/>
<g style="mix-blend-mode:multiply">
<path d="M0 113H242" stroke="#A0A3B1" stroke-width="1.5" stroke-dasharray="2 2"/>
</g>
<g style="mix-blend-mode:multiply">
<circle cx="111" cy="81" r="14" fill="#F5C451"/>
</g>
<path d="M85.4892 31C85.3866 31 85.3072 30.972 85.2512 30.916C85.1952 30.8507 85.1672 30.7713 85.1672 30.678V21.536C85.1672 21.4333 85.1952 21.354 85.2512 21.298C85.3072 21.2327 85.3866 21.2 85.4892 21.2H89.0452C89.7359 21.2 90.3332 21.312 90.8372 21.536C91.3506 21.76 91.7472 22.096 92.0272 22.544C92.3072 22.9827 92.4472 23.5333 92.4472 24.196C92.4472 24.8587 92.3072 25.4093 92.0272 25.848C91.7472 26.2867 91.3506 26.618 90.8372 26.842C90.3332 27.066 89.7359 27.178 89.0452 27.178H86.5672V30.678C86.5672 30.7713 86.5346 30.8507 86.4692 30.916C86.4132 30.972 86.3339 31 86.2312 31H85.4892ZM86.5532 26.002H88.9752C89.6659 26.002 90.1839 25.848 90.5292 25.54C90.8746 25.232 91.0472 24.784 91.0472 24.196C91.0472 23.6173 90.8792 23.1693 90.5432 22.852C90.2072 22.5347 89.6846 22.376 88.9752 22.376H86.5532V26.002ZM96.8539 31.14C96.1446 31.14 95.5519 31.0047 95.0759 30.734C94.5999 30.4633 94.2359 30.09 93.9839 29.614C93.7319 29.1287 93.5919 28.578 93.5639 27.962C93.5546 27.8033 93.5499 27.6027 93.5499 27.36C93.5499 27.108 93.5546 26.9073 93.5639 26.758C93.5919 26.1327 93.7319 25.582 93.9839 25.106C94.2453 24.63 94.6139 24.2567 95.0899 23.986C95.5659 23.7153 96.1539 23.58 96.8539 23.58C97.5539 23.58 98.1419 23.7153 98.6179 23.986C99.0939 24.2567 99.4579 24.63 99.7099 25.106C99.9713 25.582 100.116 26.1327 100.144 26.758C100.153 26.9073 100.158 27.108 100.158 27.36C100.158 27.6027 100.153 27.8033 100.144 27.962C100.116 28.578 99.9759 29.1287 99.7239 29.614C99.4719 30.09 99.1079 30.4633 98.6319 30.734C98.1559 31.0047 97.5633 31.14 96.8539 31.14ZM96.8539 30.062C97.4326 30.062 97.8946 29.88 98.2399 29.516C98.5853 29.1427 98.7719 28.6013 98.7999 27.892C98.8093 27.752 98.8139 27.5747 98.8139 27.36C98.8139 27.1453 98.8093 26.968 98.7999 26.828C98.7719 26.1187 98.5853 25.582 98.2399 25.218C97.8946 24.8447 97.4326 24.658 96.8539 24.658C96.2753 24.658 95.8086 24.8447 95.4539 25.218C95.1086 25.582 94.9266 26.1187 94.9079 26.828C94.8986 26.968 94.8939 27.1453 94.8939 27.36C94.8939 27.5747 94.8986 27.752 94.9079 27.892C94.9266 28.6013 95.1086 29.1427 95.4539 29.516C95.8086 29.88 96.2753 30.062 96.8539 30.062ZM105.509 31.14C104.949 31.14 104.482 31.042 104.109 30.846C103.736 30.6407 103.437 30.3887 103.213 30.09V30.678C103.213 30.7713 103.18 30.8507 103.115 30.916C103.059 30.972 102.984 31 102.891 31H102.247C102.154 31 102.074 30.972 102.009 30.916C101.953 30.8507 101.925 30.7713 101.925 30.678V21.382C101.925 21.2887 101.953 21.214 102.009 21.158C102.074 21.0927 102.154 21.06 102.247 21.06H102.919C103.022 21.06 103.101 21.0927 103.157 21.158C103.213 21.214 103.241 21.2887 103.241 21.382V24.602C103.474 24.3127 103.773 24.07 104.137 23.874C104.51 23.678 104.968 23.58 105.509 23.58C106.032 23.58 106.475 23.6733 106.839 23.86C107.212 24.0373 107.516 24.2847 107.749 24.602C107.992 24.9193 108.174 25.2787 108.295 25.68C108.416 26.0813 108.482 26.5013 108.491 26.94C108.5 27.0893 108.505 27.2293 108.505 27.36C108.505 27.4907 108.5 27.6307 108.491 27.78C108.482 28.228 108.416 28.6527 108.295 29.054C108.174 29.4553 107.992 29.8147 107.749 30.132C107.516 30.44 107.212 30.6873 106.839 30.874C106.475 31.0513 106.032 31.14 105.509 31.14ZM105.215 30.006C105.7 30.006 106.078 29.9033 106.349 29.698C106.629 29.4833 106.83 29.208 106.951 28.872C107.072 28.5267 107.142 28.158 107.161 27.766C107.17 27.4953 107.17 27.2247 107.161 26.954C107.142 26.562 107.072 26.198 106.951 25.862C106.83 25.5167 106.629 25.2413 106.349 25.036C106.078 24.8213 105.7 24.714 105.215 24.714C104.776 24.714 104.412 24.8167 104.123 25.022C103.834 25.2273 103.614 25.4887 103.465 25.806C103.325 26.1233 103.25 26.4453 103.241 26.772C103.232 26.9213 103.227 27.1033 103.227 27.318C103.227 27.5233 103.232 27.7007 103.241 27.85C103.26 28.1953 103.334 28.536 103.465 28.872C103.605 29.1987 103.815 29.4693 104.095 29.684C104.384 29.8987 104.758 30.006 105.215 30.006ZM110.559 31C110.466 31 110.387 30.972 110.321 30.916C110.265 30.8507 110.237 30.7713 110.237 30.678V24.056C110.237 23.9627 110.265 23.8833 110.321 23.818C110.387 23.7527 110.466 23.72 110.559 23.72H111.203C111.297 23.72 111.376 23.7527 111.441 23.818C111.507 23.8833 111.539 23.9627 111.539 24.056V24.672C111.726 24.3547 111.983 24.1167 112.309 23.958C112.636 23.7993 113.028 23.72 113.485 23.72H114.045C114.139 23.72 114.213 23.7527 114.269 23.818C114.325 23.874 114.353 23.9487 114.353 24.042V24.616C114.353 24.7093 114.325 24.784 114.269 24.84C114.213 24.896 114.139 24.924 114.045 24.924H113.205C112.701 24.924 112.305 25.0733 112.015 25.372C111.726 25.6613 111.581 26.058 111.581 26.562V30.678C111.581 30.7713 111.549 30.8507 111.483 30.916C111.418 30.972 111.339 31 111.245 31H110.559ZM118.317 31.14C117.355 31.14 116.59 30.846 116.021 30.258C115.451 29.6607 115.139 28.8487 115.083 27.822C115.073 27.7007 115.069 27.5467 115.069 27.36C115.069 27.164 115.073 27.0053 115.083 26.884C115.12 26.2213 115.274 25.6427 115.545 25.148C115.815 24.644 116.184 24.2567 116.651 23.986C117.127 23.7153 117.682 23.58 118.317 23.58C119.026 23.58 119.619 23.7293 120.095 24.028C120.58 24.3267 120.949 24.7513 121.201 25.302C121.453 25.8527 121.579 26.4967 121.579 27.234V27.472C121.579 27.5747 121.546 27.654 121.481 27.71C121.425 27.766 121.35 27.794 121.257 27.794H116.413C116.413 27.8033 116.413 27.822 116.413 27.85C116.413 27.878 116.413 27.9013 116.413 27.92C116.431 28.3027 116.515 28.662 116.665 28.998C116.814 29.3247 117.029 29.5907 117.309 29.796C117.589 30.0013 117.925 30.104 118.317 30.104C118.653 30.104 118.933 30.0527 119.157 29.95C119.381 29.8473 119.563 29.7353 119.703 29.614C119.843 29.4833 119.936 29.3853 119.983 29.32C120.067 29.1987 120.132 29.1287 120.179 29.11C120.225 29.082 120.3 29.068 120.403 29.068H121.075C121.168 29.068 121.243 29.096 121.299 29.152C121.364 29.1987 121.392 29.2687 121.383 29.362C121.373 29.502 121.299 29.6747 121.159 29.88C121.019 30.076 120.818 30.272 120.557 30.468C120.295 30.664 119.978 30.8273 119.605 30.958C119.231 31.0793 118.802 31.14 118.317 31.14ZM116.413 26.828H120.249V26.786C120.249 26.366 120.169 25.9927 120.011 25.666C119.861 25.3393 119.642 25.0827 119.353 24.896C119.063 24.7 118.718 24.602 118.317 24.602C117.915 24.602 117.57 24.7 117.281 24.896C117.001 25.0827 116.786 25.3393 116.637 25.666C116.487 25.9927 116.413 26.366 116.413 26.786V26.828ZM123.099 31C123.006 31 122.926 30.972 122.861 30.916C122.805 30.8507 122.777 30.7713 122.777 30.678V30.188C122.777 30.104 122.796 30.0247 122.833 29.95C122.88 29.8753 122.926 29.8053 122.973 29.74L126.837 24.826H123.225C123.132 24.826 123.052 24.798 122.987 24.742C122.931 24.686 122.903 24.6067 122.903 24.504V24.042C122.903 23.9487 122.931 23.874 122.987 23.818C123.052 23.7527 123.132 23.72 123.225 23.72H128.209C128.302 23.72 128.377 23.7527 128.433 23.818C128.498 23.874 128.531 23.9487 128.531 24.042V24.56C128.531 24.644 128.508 24.7187 128.461 24.784C128.424 24.8493 128.382 24.9193 128.335 24.994L124.513 29.894H128.489C128.582 29.894 128.657 29.922 128.713 29.978C128.778 30.034 128.811 30.1133 128.811 30.216V30.678C128.811 30.7713 128.778 30.8507 128.713 30.916C128.657 30.972 128.582 31 128.489 31H123.099ZM132.392 31.14C131.926 31.14 131.501 31.0467 131.118 30.86C130.736 30.6733 130.428 30.4213 130.194 30.104C129.961 29.7867 129.844 29.4273 129.844 29.026C129.844 28.382 130.106 27.8687 130.628 27.486C131.151 27.1033 131.832 26.8513 132.672 26.73L134.758 26.436V26.03C134.758 25.582 134.628 25.232 134.366 24.98C134.114 24.728 133.699 24.602 133.12 24.602C132.7 24.602 132.36 24.686 132.098 24.854C131.846 25.022 131.669 25.2367 131.566 25.498C131.51 25.638 131.412 25.708 131.272 25.708H130.642C130.54 25.708 130.46 25.68 130.404 25.624C130.358 25.5587 130.334 25.484 130.334 25.4C130.334 25.26 130.386 25.0873 130.488 24.882C130.6 24.6767 130.768 24.476 130.992 24.28C131.216 24.084 131.501 23.9207 131.846 23.79C132.201 23.65 132.63 23.58 133.134 23.58C133.694 23.58 134.166 23.6547 134.548 23.804C134.931 23.944 135.23 24.1353 135.444 24.378C135.668 24.6207 135.827 24.896 135.92 25.204C136.023 25.512 136.074 25.8247 136.074 26.142V30.678C136.074 30.7713 136.042 30.8507 135.976 30.916C135.92 30.972 135.846 31 135.752 31H135.108C135.006 31 134.926 30.972 134.87 30.916C134.814 30.8507 134.786 30.7713 134.786 30.678V30.076C134.665 30.244 134.502 30.412 134.296 30.58C134.091 30.7387 133.834 30.874 133.526 30.986C133.218 31.0887 132.84 31.14 132.392 31.14ZM132.686 30.09C133.069 30.09 133.419 30.0107 133.736 29.852C134.054 29.684 134.301 29.4273 134.478 29.082C134.665 28.7367 134.758 28.3027 134.758 27.78V27.388L133.134 27.626C132.472 27.7193 131.972 27.878 131.636 28.102C131.3 28.3167 131.132 28.592 131.132 28.928C131.132 29.1893 131.207 29.4087 131.356 29.586C131.515 29.754 131.711 29.88 131.944 29.964C132.187 30.048 132.434 30.09 132.686 30.09Z" fill="#C7E2FF"/>
<path d="M78.2636 140C78.161 140 78.0816 139.972 78.0256 139.916C77.9696 139.851 77.9416 139.771 77.9416 139.678V130.522C77.9416 130.429 77.9696 130.354 78.0256 130.298C78.0816 130.233 78.161 130.2 78.2636 130.2H79.0056C79.099 130.2 79.1736 130.233 79.2296 130.298C79.295 130.354 79.3276 130.429 79.3276 130.522V139.678C79.3276 139.771 79.295 139.851 79.2296 139.916C79.1736 139.972 79.099 140 79.0056 140H78.2636ZM81.9098 140C81.8164 140 81.7371 139.972 81.6718 139.916C81.6158 139.851 81.5878 139.771 81.5878 139.678V133.042C81.5878 132.949 81.6158 132.874 81.6718 132.818C81.7371 132.753 81.8164 132.72 81.9098 132.72H82.5678C82.6611 132.72 82.7358 132.753 82.7918 132.818C82.8571 132.874 82.8898 132.949 82.8898 133.042V133.658C83.1324 133.341 83.4358 133.084 83.7998 132.888C84.1731 132.683 84.6491 132.58 85.2278 132.58C85.8344 132.58 86.3478 132.715 86.7678 132.986C87.1971 133.247 87.5191 133.616 87.7338 134.092C87.9484 134.559 88.0558 135.105 88.0558 135.73V139.678C88.0558 139.771 88.0278 139.851 87.9718 139.916C87.9158 139.972 87.8411 140 87.7478 140H87.0478C86.9544 140 86.8751 139.972 86.8098 139.916C86.7538 139.851 86.7258 139.771 86.7258 139.678V135.8C86.7258 135.147 86.5671 134.638 86.2498 134.274C85.9324 133.901 85.4658 133.714 84.8498 133.714C84.2711 133.714 83.8044 133.901 83.4498 134.274C83.1044 134.638 82.9318 135.147 82.9318 135.8V139.678C82.9318 139.771 82.8991 139.851 82.8338 139.916C82.7778 139.972 82.7031 140 82.6098 140H81.9098ZM92.738 140.14C92.2247 140.14 91.7813 140.051 91.408 139.874C91.0347 139.687 90.7267 139.44 90.484 139.132C90.2507 138.815 90.0733 138.455 89.952 138.054C89.84 137.653 89.7747 137.228 89.756 136.78C89.7467 136.631 89.742 136.491 89.742 136.36C89.742 136.229 89.7467 136.089 89.756 135.94C89.7747 135.501 89.84 135.081 89.952 134.68C90.0733 134.279 90.2507 133.919 90.484 133.602C90.7267 133.285 91.0347 133.037 91.408 132.86C91.7813 132.673 92.2247 132.58 92.738 132.58C93.2887 132.58 93.746 132.678 94.11 132.874C94.474 133.07 94.7727 133.313 95.006 133.602V130.382C95.006 130.289 95.034 130.214 95.09 130.158C95.1553 130.093 95.2347 130.06 95.328 130.06H96C96.0933 130.06 96.168 130.093 96.224 130.158C96.2893 130.214 96.322 130.289 96.322 130.382V139.678C96.322 139.771 96.2893 139.851 96.224 139.916C96.168 139.972 96.0933 140 96 140H95.37C95.2673 140 95.188 139.972 95.132 139.916C95.076 139.851 95.048 139.771 95.048 139.678V139.09C94.8147 139.389 94.5113 139.641 94.138 139.846C93.7647 140.042 93.298 140.14 92.738 140.14ZM93.032 139.006C93.4987 139.006 93.872 138.899 94.152 138.684C94.432 138.469 94.642 138.199 94.782 137.872C94.922 137.536 94.9967 137.195 95.006 136.85C95.0153 136.701 95.02 136.523 95.02 136.318C95.02 136.103 95.0153 135.921 95.006 135.772C94.9967 135.445 94.9173 135.123 94.768 134.806C94.628 134.489 94.4133 134.227 94.124 134.022C93.844 133.817 93.48 133.714 93.032 133.714C92.556 133.714 92.178 133.821 91.898 134.036C91.618 134.241 91.4173 134.517 91.296 134.862C91.1747 135.198 91.1047 135.562 91.086 135.954C91.0767 136.225 91.0767 136.495 91.086 136.766C91.1047 137.158 91.1747 137.527 91.296 137.872C91.4173 138.208 91.618 138.483 91.898 138.698C92.178 138.903 92.556 139.006 93.032 139.006ZM98.7262 140C98.6328 140 98.5535 139.972 98.4882 139.916C98.4322 139.851 98.4042 139.771 98.4042 139.678V133.042C98.4042 132.949 98.4322 132.874 98.4882 132.818C98.5535 132.753 98.6328 132.72 98.7262 132.72H99.3982C99.4915 132.72 99.5662 132.753 99.6222 132.818C99.6782 132.874 99.7062 132.949 99.7062 133.042V139.678C99.7062 139.771 99.6782 139.851 99.6222 139.916C99.5662 139.972 99.4915 140 99.3982 140H98.7262ZM98.6142 131.362C98.5208 131.362 98.4415 131.334 98.3762 131.278C98.3202 131.213 98.2922 131.133 98.2922 131.04V130.284C98.2922 130.191 98.3202 130.116 98.3762 130.06C98.4415 129.995 98.5208 129.962 98.6142 129.962H99.4962C99.5895 129.962 99.6642 129.995 99.7202 130.06C99.7855 130.116 99.8182 130.191 99.8182 130.284V131.04C99.8182 131.133 99.7855 131.213 99.7202 131.278C99.6642 131.334 99.5895 131.362 99.4962 131.362H98.6142ZM104.777 143.08C104.142 143.08 103.619 142.996 103.209 142.828C102.807 142.66 102.49 142.455 102.257 142.212C102.033 141.979 101.869 141.741 101.767 141.498C101.673 141.265 101.622 141.078 101.613 140.938C101.603 140.845 101.631 140.765 101.697 140.7C101.771 140.635 101.851 140.602 101.935 140.602H102.607C102.691 140.602 102.761 140.621 102.817 140.658C102.873 140.695 102.919 140.775 102.957 140.896C103.013 141.036 103.097 141.19 103.209 141.358C103.321 141.535 103.493 141.685 103.727 141.806C103.96 141.937 104.287 142.002 104.707 142.002C105.145 142.002 105.514 141.941 105.813 141.82C106.111 141.708 106.335 141.503 106.485 141.204C106.643 140.915 106.723 140.513 106.723 140V139.048C106.499 139.337 106.205 139.58 105.841 139.776C105.477 139.963 105.019 140.056 104.469 140.056C103.946 140.056 103.498 139.967 103.125 139.79C102.751 139.603 102.443 139.356 102.201 139.048C101.967 138.731 101.79 138.371 101.669 137.97C101.557 137.569 101.491 137.149 101.473 136.71C101.463 136.449 101.463 136.192 101.473 135.94C101.491 135.501 101.557 135.081 101.669 134.68C101.79 134.279 101.967 133.919 102.201 133.602C102.443 133.285 102.751 133.037 103.125 132.86C103.498 132.673 103.946 132.58 104.469 132.58C105.029 132.58 105.491 132.687 105.855 132.902C106.228 133.107 106.531 133.359 106.765 133.658V133.056C106.765 132.963 106.793 132.883 106.849 132.818C106.914 132.753 106.993 132.72 107.087 132.72H107.731C107.824 132.72 107.903 132.753 107.969 132.818C108.034 132.883 108.067 132.963 108.067 133.056V139.846C108.067 140.471 107.959 141.027 107.745 141.512C107.539 141.997 107.194 142.38 106.709 142.66C106.233 142.94 105.589 143.08 104.777 143.08ZM104.749 138.936C105.215 138.936 105.589 138.829 105.869 138.614C106.158 138.399 106.368 138.129 106.499 137.802C106.639 137.475 106.713 137.144 106.723 136.808C106.732 136.677 106.737 136.519 106.737 136.332C106.737 136.136 106.732 135.973 106.723 135.842C106.713 135.506 106.639 135.175 106.499 134.848C106.368 134.521 106.158 134.251 105.869 134.036C105.589 133.821 105.215 133.714 104.749 133.714C104.282 133.714 103.909 133.821 103.629 134.036C103.349 134.241 103.148 134.517 103.027 134.862C102.905 135.198 102.835 135.562 102.817 135.954C102.807 136.197 102.807 136.444 102.817 136.696C102.835 137.088 102.905 137.457 103.027 137.802C103.148 138.138 103.349 138.413 103.629 138.628C103.909 138.833 104.282 138.936 104.749 138.936ZM113.046 140.14C112.085 140.14 111.32 139.846 110.75 139.258C110.181 138.661 109.868 137.849 109.812 136.822C109.803 136.701 109.798 136.547 109.798 136.36C109.798 136.164 109.803 136.005 109.812 135.884C109.85 135.221 110.004 134.643 110.274 134.148C110.545 133.644 110.914 133.257 111.38 132.986C111.856 132.715 112.412 132.58 113.046 132.58C113.756 132.58 114.348 132.729 114.824 133.028C115.31 133.327 115.678 133.751 115.93 134.302C116.182 134.853 116.308 135.497 116.308 136.234V136.472C116.308 136.575 116.276 136.654 116.21 136.71C116.154 136.766 116.08 136.794 115.986 136.794H111.142C111.142 136.803 111.142 136.822 111.142 136.85C111.142 136.878 111.142 136.901 111.142 136.92C111.161 137.303 111.245 137.662 111.394 137.998C111.544 138.325 111.758 138.591 112.038 138.796C112.318 139.001 112.654 139.104 113.046 139.104C113.382 139.104 113.662 139.053 113.886 138.95C114.11 138.847 114.292 138.735 114.432 138.614C114.572 138.483 114.666 138.385 114.712 138.32C114.796 138.199 114.862 138.129 114.908 138.11C114.955 138.082 115.03 138.068 115.132 138.068H115.804C115.898 138.068 115.972 138.096 116.028 138.152C116.094 138.199 116.122 138.269 116.112 138.362C116.103 138.502 116.028 138.675 115.888 138.88C115.748 139.076 115.548 139.272 115.286 139.468C115.025 139.664 114.708 139.827 114.334 139.958C113.961 140.079 113.532 140.14 113.046 140.14ZM111.142 135.828H114.978V135.786C114.978 135.366 114.899 134.993 114.74 134.666C114.591 134.339 114.372 134.083 114.082 133.896C113.793 133.7 113.448 133.602 113.046 133.602C112.645 133.602 112.3 133.7 112.01 133.896C111.73 134.083 111.516 134.339 111.366 134.666C111.217 134.993 111.142 135.366 111.142 135.786V135.828ZM118.304 140C118.211 140 118.132 139.972 118.066 139.916C118.01 139.851 117.982 139.771 117.982 139.678V133.042C117.982 132.949 118.01 132.874 118.066 132.818C118.132 132.753 118.211 132.72 118.304 132.72H118.962C119.056 132.72 119.13 132.753 119.186 132.818C119.252 132.874 119.284 132.949 119.284 133.042V133.658C119.527 133.341 119.83 133.084 120.194 132.888C120.568 132.683 121.044 132.58 121.622 132.58C122.229 132.58 122.742 132.715 123.162 132.986C123.592 133.247 123.914 133.616 124.128 134.092C124.343 134.559 124.45 135.105 124.45 135.73V139.678C124.45 139.771 124.422 139.851 124.366 139.916C124.31 139.972 124.236 140 124.142 140H123.442C123.349 140 123.27 139.972 123.204 139.916C123.148 139.851 123.12 139.771 123.12 139.678V135.8C123.12 135.147 122.962 134.638 122.644 134.274C122.327 133.901 121.86 133.714 121.244 133.714C120.666 133.714 120.199 133.901 119.844 134.274C119.499 134.638 119.326 135.147 119.326 135.8V139.678C119.326 139.771 119.294 139.851 119.228 139.916C119.172 139.972 119.098 140 119.004 140H118.304ZM129.413 140.14C128.75 140.14 128.176 140.014 127.691 139.762C127.215 139.501 126.846 139.132 126.585 138.656C126.323 138.171 126.183 137.592 126.165 136.92C126.155 136.78 126.151 136.593 126.151 136.36C126.151 136.127 126.155 135.94 126.165 135.8C126.183 135.128 126.323 134.554 126.585 134.078C126.846 133.593 127.215 133.224 127.691 132.972C128.176 132.711 128.75 132.58 129.413 132.58C129.954 132.58 130.416 132.655 130.799 132.804C131.191 132.953 131.513 133.145 131.765 133.378C132.017 133.611 132.203 133.863 132.325 134.134C132.455 134.405 132.525 134.661 132.535 134.904C132.544 134.997 132.516 135.072 132.451 135.128C132.385 135.184 132.306 135.212 132.213 135.212H131.541C131.447 135.212 131.377 135.193 131.331 135.156C131.284 135.109 131.237 135.035 131.191 134.932C131.023 134.475 130.794 134.153 130.505 133.966C130.215 133.779 129.856 133.686 129.427 133.686C128.867 133.686 128.409 133.859 128.055 134.204C127.709 134.549 127.523 135.105 127.495 135.87C127.485 136.206 127.485 136.533 127.495 136.85C127.523 137.625 127.709 138.185 128.055 138.53C128.409 138.866 128.867 139.034 129.427 139.034C129.856 139.034 130.215 138.941 130.505 138.754C130.794 138.567 131.023 138.245 131.191 137.788C131.237 137.685 131.284 137.615 131.331 137.578C131.377 137.531 131.447 137.508 131.541 137.508H132.213C132.306 137.508 132.385 137.536 132.451 137.592C132.516 137.648 132.544 137.723 132.535 137.816C132.525 138.012 132.483 138.213 132.409 138.418C132.334 138.623 132.213 138.833 132.045 139.048C131.886 139.253 131.685 139.44 131.443 139.608C131.2 139.767 130.906 139.897 130.561 140C130.225 140.093 129.842 140.14 129.413 140.14ZM134.519 140C134.426 140 134.346 139.972 134.281 139.916C134.225 139.851 134.197 139.771 134.197 139.678V133.042C134.197 132.949 134.225 132.874 134.281 132.818C134.346 132.753 134.426 132.72 134.519 132.72H135.191C135.284 132.72 135.359 132.753 135.415 132.818C135.471 132.874 135.499 132.949 135.499 133.042V139.678C135.499 139.771 135.471 139.851 135.415 139.916C135.359 139.972 135.284 140 135.191 140H134.519ZM134.407 131.362C134.314 131.362 134.234 131.334 134.169 131.278C134.113 131.213 134.085 131.133 134.085 131.04V130.284C134.085 130.191 134.113 130.116 134.169 130.06C134.234 129.995 134.314 129.962 134.407 129.962H135.289C135.382 129.962 135.457 129.995 135.513 130.06C135.578 130.116 135.611 130.191 135.611 130.284V131.04C135.611 131.133 135.578 131.213 135.513 131.278C135.457 131.334 135.382 131.362 135.289 131.362H134.407ZM139.618 140.14C139.151 140.14 138.726 140.047 138.344 139.86C137.961 139.673 137.653 139.421 137.42 139.104C137.186 138.787 137.07 138.427 137.07 138.026C137.07 137.382 137.331 136.869 137.854 136.486C138.376 136.103 139.058 135.851 139.898 135.73L141.984 135.436V135.03C141.984 134.582 141.853 134.232 141.592 133.98C141.34 133.728 140.924 133.602 140.346 133.602C139.926 133.602 139.585 133.686 139.324 133.854C139.072 134.022 138.894 134.237 138.792 134.498C138.736 134.638 138.638 134.708 138.498 134.708H137.868C137.765 134.708 137.686 134.68 137.63 134.624C137.583 134.559 137.56 134.484 137.56 134.4C137.56 134.26 137.611 134.087 137.714 133.882C137.826 133.677 137.994 133.476 138.218 133.28C138.442 133.084 138.726 132.921 139.072 132.79C139.426 132.65 139.856 132.58 140.36 132.58C140.92 132.58 141.391 132.655 141.774 132.804C142.156 132.944 142.455 133.135 142.67 133.378C142.894 133.621 143.052 133.896 143.146 134.204C143.248 134.512 143.3 134.825 143.3 135.142V139.678C143.3 139.771 143.267 139.851 143.202 139.916C143.146 139.972 143.071 140 142.978 140H142.334C142.231 140 142.152 139.972 142.096 139.916C142.04 139.851 142.012 139.771 142.012 139.678V139.076C141.89 139.244 141.727 139.412 141.522 139.58C141.316 139.739 141.06 139.874 140.752 139.986C140.444 140.089 140.066 140.14 139.618 140.14ZM139.912 139.09C140.294 139.09 140.644 139.011 140.962 138.852C141.279 138.684 141.526 138.427 141.704 138.082C141.89 137.737 141.984 137.303 141.984 136.78V136.388L140.36 136.626C139.697 136.719 139.198 136.878 138.862 137.102C138.526 137.317 138.358 137.592 138.358 137.928C138.358 138.189 138.432 138.409 138.582 138.586C138.74 138.754 138.936 138.88 139.17 138.964C139.412 139.048 139.66 139.09 139.912 139.09Z" fill="#C7E2FF"/>
<g style="mix-blend-mode:multiply">
<path d="M0 50H242" stroke="#A0A3B1" stroke-width="1.5" stroke-dasharray="2 2"/>
</g>
<path d="M104.293 55.584C104.469 55.4082 104.684 55.3203 104.938 55.3203C105.211 55.3203 105.436 55.4082 105.611 55.584L109.684 59.7148C109.684 59.6758 109.674 59.6074 109.654 59.5098C109.654 59.3926 109.654 59.1387 109.654 58.748C109.654 58.3574 109.645 57.7617 109.625 56.9609C109.625 56.1406 109.625 55.0078 109.625 53.5625H111.5L111.471 59.7148L115.543 55.584C115.719 55.4082 115.934 55.3203 116.188 55.3203C116.461 55.3203 116.686 55.4082 116.861 55.584C117.037 55.7793 117.125 56.0039 117.125 56.2578C117.125 56.5117 117.037 56.7266 116.861 56.9023L111.236 62.6738C111.197 62.6738 111.148 62.7031 111.09 62.7617C111.051 62.7812 111.012 62.8008 110.973 62.8203C110.953 62.8398 110.924 62.8594 110.885 62.8789L110.738 62.9082C110.719 62.9277 110.66 62.9375 110.562 62.9375C110.543 62.9375 110.504 62.9277 110.445 62.9082C110.406 62.9082 110.338 62.8984 110.24 62.8789C110.201 62.8594 110.172 62.8398 110.152 62.8203C110.152 62.8203 110.133 62.8105 110.094 62.791C110.055 62.7715 110.025 62.752 110.006 62.7324C110.006 62.7324 109.986 62.7227 109.947 62.7031L109.918 62.6738H109.889L104.293 56.9023C104.098 56.7266 104 56.5117 104 56.2578C104 56.0039 104.098 55.7793 104.293 55.584ZM109.625 51.6875H111.5V52.625H109.625V51.6875ZM109.625 49.8125H111.5V50.75H109.625V49.8125ZM111.5 47.9375V48.875H109.625V47.9375H111.5Z" fill="#C7E2FF"/>
<path d="M117.707 106.416C117.531 106.592 117.316 106.68 117.062 106.68C116.789 106.68 116.564 106.592 116.389 106.416L112.316 102.285C112.316 102.324 112.326 102.393 112.346 102.49C112.346 102.607 112.346 102.861 112.346 103.252C112.346 103.643 112.355 104.238 112.375 105.039C112.375 105.859 112.375 106.992 112.375 108.438L110.5 108.438L110.529 102.285L106.457 106.416C106.281 106.592 106.066 106.68 105.812 106.68C105.539 106.68 105.314 106.592 105.139 106.416C104.963 106.221 104.875 105.996 104.875 105.742C104.875 105.488 104.963 105.273 105.139 105.098L110.764 99.3262C110.803 99.3262 110.852 99.2969 110.91 99.2383C110.949 99.2188 110.988 99.1992 111.027 99.1797C111.047 99.1602 111.076 99.1406 111.115 99.1211L111.262 99.0918C111.281 99.0723 111.34 99.0625 111.437 99.0625C111.457 99.0625 111.496 99.0723 111.555 99.0918C111.594 99.0918 111.662 99.1016 111.76 99.1211C111.799 99.1406 111.828 99.1602 111.848 99.1797C111.848 99.1797 111.867 99.1895 111.906 99.209C111.945 99.2285 111.975 99.248 111.994 99.2676C111.994 99.2676 112.014 99.2773 112.053 99.2969L112.082 99.3262L112.111 99.3262L117.707 105.098C117.902 105.273 118 105.488 118 105.742C118 105.996 117.902 106.221 117.707 106.416ZM112.375 110.313L110.5 110.313L110.5 109.375L112.375 109.375L112.375 110.313ZM112.375 112.188L110.5 112.188L110.5 111.25L112.375 111.25L112.375 112.188ZM110.5 114.063L110.5 113.125L112.375 113.125L112.375 114.063L110.5 114.063Z" fill="#C7E2FF"/>
<path d="M136.226 84.09C135.674 84.09 135.194 84 134.786 83.82C134.378 83.64 134.06 83.37 133.832 83.01C133.604 82.644 133.478 82.188 133.454 81.642C133.448 81.384 133.445 81.126 133.445 80.868C133.445 80.61 133.448 80.349 133.454 80.085C133.478 79.545 133.604 79.092 133.832 78.726C134.066 78.354 134.387 78.075 134.795 77.889C135.203 77.703 135.68 77.61 136.226 77.61C136.766 77.61 137.24 77.703 137.648 77.889C138.062 78.075 138.386 78.354 138.62 78.726C138.854 79.092 138.98 79.545 138.998 80.085C139.01 80.349 139.016 80.61 139.016 80.868C139.016 81.126 139.01 81.384 138.998 81.642C138.974 82.188 138.848 82.644 138.62 83.01C138.392 83.37 138.074 83.64 137.666 83.82C137.258 84 136.778 84.09 136.226 84.09ZM136.226 82.794C136.544 82.794 136.802 82.698 137 82.506C137.204 82.314 137.312 82.008 137.324 81.588C137.336 81.324 137.342 81.075 137.342 80.841C137.342 80.607 137.336 80.364 137.324 80.112C137.312 79.83 137.258 79.602 137.162 79.428C137.072 79.248 136.946 79.116 136.784 79.032C136.622 78.948 136.436 78.906 136.226 78.906C136.022 78.906 135.839 78.948 135.677 79.032C135.515 79.116 135.386 79.248 135.29 79.428C135.194 79.602 135.14 79.83 135.128 80.112C135.122 80.364 135.119 80.607 135.119 80.841C135.119 81.075 135.122 81.324 135.128 81.588C135.146 82.008 135.254 82.314 135.452 82.506C135.65 82.698 135.908 82.794 136.226 82.794ZM140.186 85.71C140.12 85.71 140.066 85.689 140.024 85.647C139.982 85.605 139.961 85.551 139.961 85.485V79.545C139.961 79.479 139.982 79.425 140.024 79.383C140.066 79.341 140.12 79.32 140.186 79.32H141.203C141.263 79.32 141.314 79.341 141.356 79.383C141.404 79.425 141.428 79.479 141.428 79.545V79.878C141.566 79.692 141.749 79.539 141.977 79.419C142.205 79.293 142.487 79.23 142.823 79.23C143.123 79.23 143.387 79.278 143.615 79.374C143.843 79.464 144.038 79.599 144.2 79.779C144.362 79.959 144.488 80.178 144.578 80.436C144.674 80.694 144.728 80.991 144.74 81.327C144.746 81.447 144.749 81.558 144.749 81.66C144.749 81.762 144.746 81.873 144.74 81.993C144.728 82.317 144.677 82.608 144.587 82.866C144.497 83.124 144.371 83.343 144.209 83.523C144.047 83.703 143.849 83.844 143.615 83.946C143.387 84.042 143.123 84.09 142.823 84.09C142.529 84.09 142.271 84.039 142.049 83.937C141.833 83.829 141.653 83.679 141.509 83.487V85.485C141.509 85.551 141.488 85.605 141.446 85.647C141.404 85.689 141.35 85.71 141.284 85.71H140.186ZM142.337 82.884C142.541 82.884 142.7 82.842 142.814 82.758C142.928 82.674 143.009 82.56 143.057 82.416C143.111 82.272 143.144 82.113 143.156 81.939C143.168 81.753 143.168 81.567 143.156 81.381C143.144 81.207 143.111 81.048 143.057 80.904C143.009 80.76 142.928 80.646 142.814 80.562C142.7 80.478 142.541 80.436 142.337 80.436C142.139 80.436 141.98 80.481 141.86 80.571C141.74 80.655 141.653 80.766 141.599 80.904C141.545 81.042 141.515 81.192 141.509 81.354C141.503 81.468 141.5 81.579 141.5 81.687C141.5 81.795 141.503 81.909 141.509 82.029C141.515 82.179 141.548 82.32 141.608 82.452C141.668 82.578 141.758 82.683 141.878 82.767C141.998 82.845 142.151 82.884 142.337 82.884ZM147.852 84.09C147.348 84.09 146.922 84.009 146.574 83.847C146.232 83.685 145.968 83.454 145.782 83.154C145.602 82.848 145.5 82.485 145.476 82.065C145.47 81.945 145.467 81.81 145.467 81.66C145.467 81.504 145.47 81.369 145.476 81.255C145.5 80.829 145.608 80.466 145.8 80.166C145.992 79.866 146.259 79.635 146.601 79.473C146.949 79.311 147.366 79.23 147.852 79.23C148.344 79.23 148.761 79.311 149.103 79.473C149.451 79.635 149.721 79.866 149.913 80.166C150.105 80.466 150.213 80.829 150.237 81.255C150.243 81.369 150.246 81.504 150.246 81.66C150.246 81.81 150.243 81.945 150.237 82.065C150.213 82.485 150.108 82.848 149.922 83.154C149.742 83.454 149.478 83.685 149.13 83.847C148.788 84.009 148.362 84.09 147.852 84.09ZM147.852 82.992C148.122 82.992 148.317 82.911 148.437 82.749C148.563 82.587 148.635 82.344 148.653 82.02C148.659 81.93 148.662 81.81 148.662 81.66C148.662 81.51 148.659 81.39 148.653 81.3C148.635 80.982 148.563 80.742 148.437 80.58C148.317 80.412 148.122 80.328 147.852 80.328C147.588 80.328 147.393 80.412 147.267 80.58C147.141 80.742 147.072 80.982 147.06 81.3C147.054 81.39 147.051 81.51 147.051 81.66C147.051 81.81 147.054 81.93 147.06 82.02C147.072 82.344 147.141 82.587 147.267 82.749C147.393 82.911 147.588 82.992 147.852 82.992ZM151.357 84C151.291 84 151.237 83.979 151.195 83.937C151.153 83.895 151.132 83.841 151.132 83.775V79.545C151.132 79.485 151.153 79.434 151.195 79.392C151.237 79.344 151.291 79.32 151.357 79.32H152.392C152.458 79.32 152.512 79.344 152.554 79.392C152.596 79.434 152.617 79.485 152.617 79.545V79.905C152.779 79.719 152.971 79.575 153.193 79.473C153.421 79.371 153.676 79.32 153.958 79.32H154.354C154.414 79.32 154.465 79.341 154.507 79.383C154.555 79.425 154.579 79.479 154.579 79.545V80.472C154.579 80.532 154.555 80.586 154.507 80.634C154.465 80.676 154.414 80.697 154.354 80.697H153.481C153.235 80.697 153.043 80.766 152.905 80.904C152.773 81.036 152.707 81.225 152.707 81.471V83.775C152.707 83.841 152.683 83.895 152.635 83.937C152.593 83.979 152.539 84 152.473 84H151.357ZM157.613 84C157.229 84 156.896 83.94 156.614 83.82C156.338 83.694 156.125 83.502 155.975 83.244C155.825 82.98 155.75 82.641 155.75 82.227V80.499H155.048C154.982 80.499 154.925 80.478 154.877 80.436C154.835 80.394 154.814 80.34 154.814 80.274V79.545C154.814 79.479 154.835 79.425 154.877 79.383C154.925 79.341 154.982 79.32 155.048 79.32H155.75V77.835C155.75 77.769 155.771 77.715 155.812 77.673C155.861 77.631 155.915 77.61 155.975 77.61H157.019C157.085 77.61 157.139 77.631 157.181 77.673C157.223 77.715 157.244 77.769 157.244 77.835V79.32H158.369C158.435 79.32 158.489 79.341 158.531 79.383C158.573 79.425 158.594 79.479 158.594 79.545V80.274C158.594 80.34 158.573 80.394 158.531 80.436C158.489 80.478 158.435 80.499 158.369 80.499H157.244V82.101C157.244 82.305 157.283 82.467 157.361 82.587C157.439 82.707 157.571 82.767 157.757 82.767H158.45C158.516 82.767 158.57 82.788 158.612 82.83C158.654 82.872 158.675 82.926 158.675 82.992V83.775C158.675 83.841 158.654 83.895 158.612 83.937C158.57 83.979 158.516 84 158.45 84H157.613ZM161.139 84.09C160.797 84.09 160.491 84.012 160.221 83.856C159.957 83.7 159.75 83.472 159.6 83.172C159.45 82.866 159.375 82.494 159.375 82.056V79.545C159.375 79.479 159.396 79.425 159.438 79.383C159.48 79.341 159.534 79.32 159.6 79.32H160.725C160.791 79.32 160.845 79.341 160.887 79.383C160.929 79.425 160.95 79.479 160.95 79.545V82.002C160.95 82.59 161.214 82.884 161.742 82.884C161.988 82.884 162.183 82.809 162.327 82.659C162.477 82.503 162.552 82.284 162.552 82.002V79.545C162.552 79.479 162.573 79.425 162.615 79.383C162.657 79.341 162.711 79.32 162.777 79.32H163.902C163.968 79.32 164.022 79.341 164.064 79.383C164.106 79.425 164.127 79.479 164.127 79.545V83.775C164.127 83.841 164.106 83.895 164.064 83.937C164.022 83.979 163.968 84 163.902 84H162.858C162.798 84 162.744 83.979 162.696 83.937C162.654 83.895 162.633 83.841 162.633 83.775V83.433C162.477 83.649 162.273 83.814 162.021 83.928C161.775 84.036 161.481 84.09 161.139 84.09ZM165.41 84C165.344 84 165.29 83.979 165.248 83.937C165.206 83.895 165.185 83.841 165.185 83.775V79.545C165.185 79.479 165.206 79.425 165.248 79.383C165.29 79.341 165.344 79.32 165.41 79.32H166.445C166.511 79.32 166.565 79.341 166.607 79.383C166.649 79.425 166.67 79.479 166.67 79.545V79.887C166.826 79.701 167.03 79.545 167.282 79.419C167.534 79.293 167.831 79.23 168.173 79.23C168.521 79.23 168.827 79.308 169.091 79.464C169.361 79.62 169.571 79.851 169.721 80.157C169.877 80.457 169.955 80.826 169.955 81.264V83.775C169.955 83.841 169.931 83.895 169.883 83.937C169.841 83.979 169.79 84 169.73 84H168.596C168.536 84 168.482 83.979 168.434 83.937C168.392 83.895 168.371 83.841 168.371 83.775V81.318C168.371 81.036 168.302 80.82 168.164 80.67C168.032 80.514 167.834 80.436 167.57 80.436C167.324 80.436 167.126 80.514 166.976 80.67C166.832 80.82 166.76 81.036 166.76 81.318V83.775C166.76 83.841 166.736 83.895 166.688 83.937C166.646 83.979 166.595 84 166.535 84H165.41ZM171.185 84C171.119 84 171.065 83.979 171.023 83.937C170.981 83.895 170.96 83.841 170.96 83.775V79.545C170.96 79.479 170.981 79.425 171.023 79.383C171.065 79.341 171.119 79.32 171.185 79.32H172.247C172.307 79.32 172.358 79.341 172.4 79.383C172.448 79.425 172.472 79.479 172.472 79.545V83.775C172.472 83.841 172.448 83.895 172.4 83.937C172.358 83.979 172.307 84 172.247 84H171.185ZM171.176 78.645C171.11 78.645 171.056 78.624 171.014 78.582C170.972 78.54 170.951 78.486 170.951 78.42V77.619C170.951 77.553 170.972 77.499 171.014 77.457C171.056 77.409 171.11 77.385 171.176 77.385H172.247C172.313 77.385 172.367 77.409 172.409 77.457C172.457 77.499 172.481 77.553 172.481 77.619V78.42C172.481 78.486 172.457 78.54 172.409 78.582C172.367 78.624 172.313 78.645 172.247 78.645H171.176ZM175.272 84.09C174.984 84.09 174.723 84.045 174.489 83.955C174.261 83.859 174.063 83.721 173.895 83.541C173.733 83.355 173.607 83.133 173.517 82.875C173.427 82.611 173.376 82.311 173.364 81.975C173.358 81.855 173.355 81.75 173.355 81.66C173.355 81.564 173.358 81.459 173.364 81.345C173.376 81.021 173.427 80.73 173.517 80.472C173.607 80.214 173.733 79.992 173.895 79.806C174.057 79.62 174.255 79.479 174.489 79.383C174.723 79.281 174.984 79.23 175.272 79.23C175.572 79.23 175.83 79.281 176.046 79.383C176.262 79.479 176.445 79.605 176.595 79.761V77.835C176.595 77.769 176.616 77.715 176.658 77.673C176.7 77.631 176.754 77.61 176.82 77.61H177.918C177.978 77.61 178.029 77.631 178.071 77.673C178.119 77.715 178.143 77.769 178.143 77.835V83.775C178.143 83.841 178.119 83.895 178.071 83.937C178.029 83.979 177.978 84 177.918 84H176.901C176.835 84 176.781 83.979 176.739 83.937C176.697 83.895 176.676 83.841 176.676 83.775V83.487C176.532 83.661 176.346 83.805 176.118 83.919C175.89 84.033 175.608 84.09 175.272 84.09ZM175.758 82.884C175.962 82.884 176.121 82.842 176.235 82.758C176.355 82.668 176.442 82.554 176.496 82.416C176.556 82.278 176.589 82.128 176.595 81.966C176.601 81.846 176.604 81.732 176.604 81.624C176.604 81.516 176.601 81.405 176.595 81.291C176.589 81.141 176.556 81.003 176.496 80.877C176.436 80.745 176.346 80.64 176.226 80.562C176.106 80.478 175.95 80.436 175.758 80.436C175.56 80.436 175.401 80.478 175.281 80.562C175.167 80.646 175.086 80.76 175.038 80.904C174.99 81.048 174.96 81.207 174.948 81.381C174.93 81.567 174.93 81.753 174.948 81.939C174.96 82.113 174.99 82.272 175.038 82.416C175.086 82.56 175.167 82.674 175.281 82.758C175.401 82.842 175.56 82.884 175.758 82.884ZM180.608 84.09C180.284 84.09 179.993 84.03 179.735 83.91C179.483 83.784 179.282 83.616 179.132 83.406C178.982 83.196 178.907 82.959 178.907 82.695C178.907 82.269 179.081 81.933 179.429 81.687C179.777 81.435 180.239 81.264 180.815 81.174L181.94 81.003V80.877C181.94 80.661 181.895 80.496 181.805 80.382C181.715 80.268 181.55 80.211 181.31 80.211C181.142 80.211 181.004 80.244 180.896 80.31C180.794 80.376 180.713 80.466 180.653 80.58C180.599 80.658 180.524 80.697 180.428 80.697H179.42C179.354 80.697 179.303 80.679 179.267 80.643C179.231 80.601 179.216 80.553 179.222 80.499C179.222 80.391 179.261 80.268 179.339 80.13C179.423 79.986 179.549 79.845 179.717 79.707C179.885 79.569 180.101 79.455 180.365 79.365C180.629 79.275 180.947 79.23 181.319 79.23C181.709 79.23 182.042 79.275 182.318 79.365C182.594 79.455 182.816 79.581 182.984 79.743C183.158 79.905 183.287 80.097 183.371 80.319C183.455 80.535 183.497 80.775 183.497 81.039V83.775C183.497 83.841 183.473 83.895 183.425 83.937C183.383 83.979 183.332 84 183.272 84H182.228C182.162 84 182.108 83.979 182.066 83.937C182.024 83.895 182.003 83.841 182.003 83.775V83.46C181.925 83.574 181.82 83.679 181.688 83.775C181.556 83.871 181.4 83.946 181.22 84C181.046 84.06 180.842 84.09 180.608 84.09ZM181.031 83.064C181.205 83.064 181.361 83.028 181.499 82.956C181.643 82.878 181.754 82.761 181.832 82.605C181.916 82.443 181.958 82.242 181.958 82.002V81.876L181.193 82.011C180.911 82.059 180.704 82.134 180.572 82.236C180.446 82.332 180.383 82.446 180.383 82.578C180.383 82.68 180.413 82.767 180.473 82.839C180.533 82.911 180.611 82.968 180.707 83.01C180.803 83.046 180.911 83.064 181.031 83.064ZM186.258 84.09C185.97 84.09 185.709 84.045 185.475 83.955C185.247 83.859 185.049 83.721 184.881 83.541C184.719 83.355 184.593 83.133 184.503 82.875C184.413 82.611 184.362 82.311 184.35 81.975C184.344 81.855 184.341 81.75 184.341 81.66C184.341 81.564 184.344 81.459 184.35 81.345C184.362 81.021 184.413 80.73 184.503 80.472C184.593 80.214 184.719 79.992 184.881 79.806C185.043 79.62 185.241 79.479 185.475 79.383C185.709 79.281 185.97 79.23 186.258 79.23C186.558 79.23 186.816 79.281 187.032 79.383C187.248 79.479 187.431 79.605 187.581 79.761V77.835C187.581 77.769 187.602 77.715 187.644 77.673C187.686 77.631 187.74 77.61 187.806 77.61H188.904C188.964 77.61 189.015 77.631 189.057 77.673C189.105 77.715 189.129 77.769 189.129 77.835V83.775C189.129 83.841 189.105 83.895 189.057 83.937C189.015 83.979 188.964 84 188.904 84H187.887C187.821 84 187.767 83.979 187.725 83.937C187.683 83.895 187.662 83.841 187.662 83.775V83.487C187.518 83.661 187.332 83.805 187.104 83.919C186.876 84.033 186.594 84.09 186.258 84.09ZM186.744 82.884C186.948 82.884 187.107 82.842 187.221 82.758C187.341 82.668 187.428 82.554 187.482 82.416C187.542 82.278 187.575 82.128 187.581 81.966C187.587 81.846 187.59 81.732 187.59 81.624C187.59 81.516 187.587 81.405 187.581 81.291C187.575 81.141 187.542 81.003 187.482 80.877C187.422 80.745 187.332 80.64 187.212 80.562C187.092 80.478 186.936 80.436 186.744 80.436C186.546 80.436 186.387 80.478 186.267 80.562C186.153 80.646 186.072 80.76 186.024 80.904C185.976 81.048 185.946 81.207 185.934 81.381C185.916 81.567 185.916 81.753 185.934 81.939C185.946 82.113 185.976 82.272 186.024 82.416C186.072 82.56 186.153 82.674 186.267 82.758C186.387 82.842 186.546 82.884 186.744 82.884ZM192.35 84.09C191.642 84.09 191.078 83.898 190.658 83.514C190.238 83.13 190.019 82.56 190.001 81.804C190.001 81.762 190.001 81.708 190.001 81.642C190.001 81.576 190.001 81.525 190.001 81.489C190.019 81.015 190.124 80.61 190.316 80.274C190.514 79.932 190.784 79.674 191.126 79.5C191.474 79.32 191.879 79.23 192.341 79.23C192.869 79.23 193.304 79.335 193.646 79.545C193.994 79.755 194.255 80.04 194.429 80.4C194.603 80.76 194.69 81.171 194.69 81.633V81.849C194.69 81.915 194.666 81.969 194.618 82.011C194.576 82.053 194.525 82.074 194.465 82.074H191.585C191.585 82.08 191.585 82.089 191.585 82.101C191.585 82.113 191.585 82.125 191.585 82.137C191.591 82.311 191.621 82.47 191.675 82.614C191.729 82.758 191.813 82.872 191.927 82.956C192.041 83.04 192.179 83.082 192.341 83.082C192.461 83.082 192.56 83.064 192.638 83.028C192.722 82.986 192.791 82.941 192.845 82.893C192.899 82.839 192.941 82.794 192.971 82.758C193.025 82.698 193.067 82.662 193.097 82.65C193.133 82.632 193.187 82.623 193.259 82.623H194.375C194.435 82.623 194.483 82.641 194.519 82.677C194.561 82.707 194.579 82.752 194.573 82.812C194.567 82.914 194.516 83.037 194.42 83.181C194.324 83.325 194.183 83.469 193.997 83.613C193.817 83.751 193.589 83.865 193.313 83.955C193.037 84.045 192.716 84.09 192.35 84.09ZM191.585 81.183H193.106V81.165C193.106 80.973 193.076 80.805 193.016 80.661C192.962 80.517 192.875 80.406 192.755 80.328C192.641 80.25 192.503 80.211 192.341 80.211C192.179 80.211 192.041 80.25 191.927 80.328C191.819 80.406 191.735 80.517 191.675 80.661C191.615 80.805 191.585 80.973 191.585 81.165V81.183ZM197.46 84.09C197.07 84.09 196.737 84.048 196.461 83.964C196.191 83.874 195.969 83.766 195.795 83.64C195.627 83.514 195.501 83.385 195.417 83.253C195.333 83.115 195.288 82.998 195.282 82.902C195.276 82.836 195.297 82.782 195.345 82.74C195.393 82.692 195.444 82.668 195.498 82.668H196.524C196.542 82.668 196.557 82.671 196.569 82.677C196.581 82.683 196.599 82.695 196.623 82.713C196.701 82.755 196.779 82.809 196.857 82.875C196.935 82.935 197.025 82.989 197.127 83.037C197.229 83.085 197.352 83.109 197.496 83.109C197.664 83.109 197.805 83.076 197.919 83.01C198.033 82.944 198.09 82.845 198.09 82.713C198.09 82.617 198.063 82.539 198.009 82.479C197.955 82.413 197.844 82.35 197.676 82.29C197.514 82.23 197.268 82.17 196.938 82.11C196.626 82.038 196.353 81.945 196.119 81.831C195.885 81.711 195.705 81.558 195.579 81.372C195.453 81.18 195.39 80.949 195.39 80.679C195.39 80.439 195.468 80.208 195.624 79.986C195.78 79.764 196.008 79.584 196.308 79.446C196.608 79.302 196.977 79.23 197.415 79.23C197.763 79.23 198.063 79.272 198.315 79.356C198.573 79.434 198.789 79.536 198.963 79.662C199.143 79.788 199.278 79.917 199.368 80.049C199.458 80.181 199.506 80.301 199.512 80.409C199.518 80.469 199.5 80.523 199.458 80.571C199.416 80.613 199.368 80.634 199.314 80.634H198.378C198.354 80.634 198.33 80.631 198.306 80.625C198.282 80.613 198.261 80.601 198.243 80.589C198.171 80.553 198.099 80.505 198.027 80.445C197.955 80.385 197.871 80.331 197.775 80.283C197.679 80.235 197.559 80.211 197.415 80.211C197.253 80.211 197.127 80.247 197.037 80.319C196.947 80.391 196.902 80.484 196.902 80.598C196.902 80.676 196.926 80.748 196.974 80.814C197.028 80.88 197.133 80.94 197.289 80.994C197.451 81.048 197.7 81.108 198.036 81.174C198.45 81.24 198.78 81.348 199.026 81.498C199.272 81.642 199.446 81.813 199.548 82.011C199.65 82.203 199.701 82.407 199.701 82.623C199.701 82.911 199.614 83.166 199.44 83.388C199.272 83.61 199.02 83.784 198.684 83.91C198.348 84.03 197.94 84.09 197.46 84.09Z" fill="#F5C451"/>
<path d="M248.17 52.1C247.71 52.1 247.32 52.03 247 51.89C246.687 51.7433 246.43 51.5433 246.23 51.29C246.03 51.0367 245.883 50.7467 245.79 50.42C245.703 50.0933 245.653 49.7467 245.64 49.38C245.633 49.2 245.627 49.01 245.62 48.81C245.62 48.61 245.62 48.41 245.62 48.21C245.627 48.0033 245.633 47.8067 245.64 47.62C245.647 47.2533 245.697 46.9067 245.79 46.58C245.89 46.2467 246.037 45.9567 246.23 45.71C246.43 45.4567 246.69 45.26 247.01 45.12C247.33 44.9733 247.717 44.9 248.17 44.9C248.63 44.9 249.017 44.9733 249.33 45.12C249.65 45.26 249.91 45.4567 250.11 45.71C250.31 45.9567 250.457 46.2467 250.55 46.58C250.65 46.9067 250.703 47.2533 250.71 47.62C250.717 47.8067 250.72 48.0033 250.72 48.21C250.727 48.41 250.727 48.61 250.72 48.81C250.72 49.01 250.717 49.2 250.71 49.38C250.703 49.7467 250.65 50.0933 250.55 50.42C250.457 50.7467 250.31 51.0367 250.11 51.29C249.917 51.5433 249.66 51.7433 249.34 51.89C249.027 52.03 248.637 52.1 248.17 52.1ZM248.17 51.25C248.69 51.25 249.073 51.08 249.32 50.74C249.573 50.3933 249.703 49.9233 249.71 49.33C249.723 49.1367 249.73 48.95 249.73 48.77C249.73 48.5833 249.73 48.4 249.73 48.22C249.73 48.0333 249.723 47.85 249.71 47.67C249.703 47.09 249.573 46.6267 249.32 46.28C249.073 45.9267 248.69 45.75 248.17 45.75C247.657 45.75 247.273 45.9267 247.02 46.28C246.773 46.6267 246.643 47.09 246.63 47.67C246.63 47.85 246.627 48.0333 246.62 48.22C246.62 48.4 246.62 48.5833 246.62 48.77C246.627 48.95 246.63 49.1367 246.63 49.33C246.643 49.9233 246.777 50.3933 247.03 50.74C247.283 51.08 247.663 51.25 248.17 51.25ZM252.438 52C252.298 52 252.228 51.9333 252.228 51.8C252.228 51.76 252.241 51.7233 252.268 51.69L257.208 45.19C257.254 45.13 257.298 45.0833 257.338 45.05C257.384 45.0167 257.451 45 257.538 45H257.868C258.008 45 258.078 45.0667 258.078 45.2C258.078 45.24 258.064 45.2767 258.038 45.31L253.108 51.81C253.061 51.87 253.014 51.9167 252.968 51.95C252.928 51.9833 252.861 52 252.768 52H252.438ZM257.018 52.06C256.578 52.06 256.234 51.9367 255.988 51.69C255.741 51.4433 255.604 51.12 255.578 50.72C255.571 50.5467 255.568 50.4 255.568 50.28C255.568 50.1533 255.571 49.9967 255.578 49.81C255.598 49.41 255.728 49.0867 255.968 48.84C256.208 48.5867 256.558 48.46 257.018 48.46C257.484 48.46 257.834 48.5867 258.068 48.84C258.308 49.0867 258.441 49.41 258.468 49.81C258.481 49.9967 258.488 50.1533 258.488 50.28C258.488 50.4 258.481 50.5467 258.468 50.72C258.441 51.12 258.301 51.4433 258.048 51.69C257.801 51.9367 257.458 52.06 257.018 52.06ZM257.018 51.4C257.191 51.4 257.328 51.3633 257.428 51.29C257.534 51.2167 257.611 51.1267 257.658 51.02C257.704 50.9067 257.731 50.7933 257.738 50.68C257.751 50.5 257.758 50.36 257.758 50.26C257.758 50.1533 257.751 50.0167 257.738 49.85C257.731 49.67 257.674 49.5033 257.568 49.35C257.461 49.1967 257.278 49.12 257.018 49.12C256.764 49.12 256.584 49.1967 256.478 49.35C256.378 49.5033 256.321 49.67 256.308 49.85C256.301 50.0167 256.298 50.1533 256.298 50.26C256.298 50.36 256.301 50.5 256.308 50.68C256.321 50.7933 256.348 50.9067 256.388 51.02C256.434 51.1267 256.508 51.2167 256.608 51.29C256.714 51.3633 256.851 51.4 257.018 51.4ZM253.278 48.51C252.838 48.51 252.494 48.3933 252.248 48.16C252.001 47.9267 251.864 47.61 251.838 47.21C251.831 47.0367 251.828 46.89 251.828 46.77C251.828 46.6433 251.831 46.4867 251.838 46.3C251.858 45.9 251.988 45.5767 252.228 45.33C252.468 45.0767 252.818 44.95 253.278 44.95C253.744 44.95 254.094 45.0767 254.328 45.33C254.568 45.5767 254.698 45.9 254.718 46.3C254.731 46.4867 254.738 46.6433 254.738 46.77C254.738 46.89 254.731 47.0367 254.718 47.21C254.698 47.61 254.561 47.9267 254.308 48.16C254.061 48.3933 253.718 48.51 253.278 48.51ZM253.278 47.89C253.451 47.89 253.588 47.8533 253.688 47.78C253.794 47.7067 253.871 47.6167 253.918 47.51C253.964 47.3967 253.991 47.2833 253.998 47.17C254.011 46.99 254.018 46.85 254.018 46.75C254.018 46.6433 254.011 46.5067 253.998 46.34C253.991 46.16 253.931 45.9933 253.818 45.84C253.711 45.6867 253.531 45.61 253.278 45.61C253.024 45.61 252.844 45.6867 252.738 45.84C252.638 45.9933 252.581 46.16 252.568 46.34C252.561 46.5067 252.558 46.6433 252.558 46.75C252.558 46.85 252.561 46.99 252.568 47.17C252.581 47.2833 252.608 47.3967 252.648 47.51C252.694 47.6167 252.768 47.7067 252.868 47.78C252.968 47.8533 253.104 47.89 253.278 47.89ZM262.506 52C262.433 52 262.376 51.98 262.336 51.94C262.296 51.8933 262.276 51.8367 262.276 51.77V45.24C262.276 45.1667 262.296 45.11 262.336 45.07C262.376 45.0233 262.433 45 262.506 45H265.046C265.54 45 265.966 45.08 266.326 45.24C266.693 45.4 266.976 45.64 267.176 45.96C267.376 46.2733 267.476 46.6667 267.476 47.14C267.476 47.6133 267.376 48.0067 267.176 48.32C266.976 48.6333 266.693 48.87 266.326 49.03C265.966 49.19 265.54 49.27 265.046 49.27H263.276V51.77C263.276 51.8367 263.253 51.8933 263.206 51.94C263.166 51.98 263.11 52 263.036 52H262.506ZM263.266 48.43H264.996C265.49 48.43 265.86 48.32 266.106 48.1C266.353 47.88 266.476 47.56 266.476 47.14C266.476 46.7267 266.356 46.4067 266.116 46.18C265.876 45.9533 265.503 45.84 264.996 45.84H263.266V48.43ZM270.624 52.1C270.117 52.1 269.694 52.0033 269.354 51.81C269.014 51.6167 268.754 51.35 268.574 51.01C268.394 50.6633 268.294 50.27 268.274 49.83C268.267 49.7167 268.264 49.5733 268.264 49.4C268.264 49.22 268.267 49.0767 268.274 48.97C268.294 48.5233 268.394 48.13 268.574 47.79C268.761 47.45 269.024 47.1833 269.364 46.99C269.704 46.7967 270.124 46.7 270.624 46.7C271.124 46.7 271.544 46.7967 271.884 46.99C272.224 47.1833 272.484 47.45 272.664 47.79C272.851 48.13 272.954 48.5233 272.974 48.97C272.981 49.0767 272.984 49.22 272.984 49.4C272.984 49.5733 272.981 49.7167 272.974 49.83C272.954 50.27 272.854 50.6633 272.674 51.01C272.494 51.35 272.234 51.6167 271.894 51.81C271.554 52.0033 271.131 52.1 270.624 52.1ZM270.624 51.33C271.037 51.33 271.367 51.2 271.614 50.94C271.861 50.6733 271.994 50.2867 272.014 49.78C272.021 49.68 272.024 49.5533 272.024 49.4C272.024 49.2467 272.021 49.12 272.014 49.02C271.994 48.5133 271.861 48.13 271.614 47.87C271.367 47.6033 271.037 47.47 270.624 47.47C270.211 47.47 269.877 47.6033 269.624 47.87C269.377 48.13 269.247 48.5133 269.234 49.02C269.227 49.12 269.224 49.2467 269.224 49.4C269.224 49.5533 269.227 49.68 269.234 49.78C269.247 50.2867 269.377 50.6733 269.624 50.94C269.877 51.2 270.211 51.33 270.624 51.33ZM276.806 52.1C276.406 52.1 276.073 52.03 275.806 51.89C275.539 51.7433 275.326 51.5633 275.166 51.35V51.77C275.166 51.8367 275.143 51.8933 275.096 51.94C275.056 51.98 275.003 52 274.936 52H274.476C274.409 52 274.353 51.98 274.306 51.94C274.266 51.8933 274.246 51.8367 274.246 51.77V45.13C274.246 45.0633 274.266 45.01 274.306 44.97C274.353 44.9233 274.409 44.9 274.476 44.9H274.956C275.029 44.9 275.086 44.9233 275.126 44.97C275.166 45.01 275.186 45.0633 275.186 45.13V47.43C275.353 47.2233 275.566 47.05 275.826 46.91C276.093 46.77 276.419 46.7 276.806 46.7C277.179 46.7 277.496 46.7667 277.756 46.9C278.023 47.0267 278.239 47.2033 278.406 47.43C278.579 47.6567 278.709 47.9133 278.796 48.2C278.883 48.4867 278.929 48.7867 278.936 49.1C278.943 49.2067 278.946 49.3067 278.946 49.4C278.946 49.4933 278.943 49.5933 278.936 49.7C278.929 50.02 278.883 50.3233 278.796 50.61C278.709 50.8967 278.579 51.1533 278.406 51.38C278.239 51.6 278.023 51.7767 277.756 51.91C277.496 52.0367 277.179 52.1 276.806 52.1ZM276.596 51.29C276.943 51.29 277.213 51.2167 277.406 51.07C277.606 50.9167 277.749 50.72 277.836 50.48C277.923 50.2333 277.973 49.97 277.986 49.69C277.993 49.4967 277.993 49.3033 277.986 49.11C277.973 48.83 277.923 48.57 277.836 48.33C277.749 48.0833 277.606 47.8867 277.406 47.74C277.213 47.5867 276.943 47.51 276.596 47.51C276.283 47.51 276.023 47.5833 275.816 47.73C275.609 47.8767 275.453 48.0633 275.346 48.29C275.246 48.5167 275.193 48.7467 275.186 48.98C275.179 49.0867 275.176 49.2167 275.176 49.37C275.176 49.5167 275.179 49.6433 275.186 49.75C275.199 49.9967 275.253 50.24 275.346 50.48C275.446 50.7133 275.596 50.9067 275.796 51.06C276.003 51.2133 276.269 51.29 276.596 51.29ZM280.413 52C280.347 52 280.29 51.98 280.243 51.94C280.203 51.8933 280.183 51.8367 280.183 51.77V47.04C280.183 46.9733 280.203 46.9167 280.243 46.87C280.29 46.8233 280.347 46.8 280.413 46.8H280.873C280.94 46.8 280.997 46.8233 281.043 46.87C281.09 46.9167 281.113 46.9733 281.113 47.04V47.48C281.247 47.2533 281.43 47.0833 281.663 46.97C281.897 46.8567 282.177 46.8 282.503 46.8H282.903C282.97 46.8 283.023 46.8233 283.063 46.87C283.103 46.91 283.123 46.9633 283.123 47.03V47.44C283.123 47.5067 283.103 47.56 283.063 47.6C283.023 47.64 282.97 47.66 282.903 47.66H282.303C281.943 47.66 281.66 47.7667 281.453 47.98C281.247 48.1867 281.143 48.47 281.143 48.83V51.77C281.143 51.8367 281.12 51.8933 281.073 51.94C281.027 51.98 280.97 52 280.903 52H280.413ZM285.955 52.1C285.268 52.1 284.721 51.89 284.315 51.47C283.908 51.0433 283.685 50.4633 283.645 49.73C283.638 49.6433 283.635 49.5333 283.635 49.4C283.635 49.26 283.638 49.1467 283.645 49.06C283.671 48.5867 283.781 48.1733 283.975 47.82C284.168 47.46 284.431 47.1833 284.765 46.99C285.105 46.7967 285.501 46.7 285.955 46.7C286.461 46.7 286.885 46.8067 287.225 47.02C287.571 47.2333 287.835 47.5367 288.015 47.93C288.195 48.3233 288.285 48.7833 288.285 49.31V49.48C288.285 49.5533 288.261 49.61 288.215 49.65C288.175 49.69 288.121 49.71 288.055 49.71H284.595C284.595 49.7167 284.595 49.73 284.595 49.75C284.595 49.77 284.595 49.7867 284.595 49.8C284.608 50.0733 284.668 50.33 284.775 50.57C284.881 50.8033 285.035 50.9933 285.235 51.14C285.435 51.2867 285.675 51.36 285.955 51.36C286.195 51.36 286.395 51.3233 286.555 51.25C286.715 51.1767 286.845 51.0967 286.945 51.01C287.045 50.9167 287.111 50.8467 287.145 50.8C287.205 50.7133 287.251 50.6633 287.285 50.65C287.318 50.63 287.371 50.62 287.445 50.62H287.925C287.991 50.62 288.045 50.64 288.085 50.68C288.131 50.7133 288.151 50.7633 288.145 50.83C288.138 50.93 288.085 51.0533 287.985 51.2C287.885 51.34 287.741 51.48 287.555 51.62C287.368 51.76 287.141 51.8767 286.875 51.97C286.608 52.0567 286.301 52.1 285.955 52.1ZM284.595 49.02H287.335V48.99C287.335 48.69 287.278 48.4233 287.165 48.19C287.058 47.9567 286.901 47.7733 286.695 47.64C286.488 47.5 286.241 47.43 285.955 47.43C285.668 47.43 285.421 47.5 285.215 47.64C285.015 47.7733 284.861 47.9567 284.755 48.19C284.648 48.4233 284.595 48.69 284.595 48.99V49.02ZM289.37 52C289.304 52 289.247 51.98 289.2 51.94C289.16 51.8933 289.14 51.8367 289.14 51.77V51.42C289.14 51.36 289.154 51.3033 289.18 51.25C289.214 51.1967 289.247 51.1467 289.28 51.1L292.04 47.59H289.46C289.394 47.59 289.337 47.57 289.29 47.53C289.25 47.49 289.23 47.4333 289.23 47.36V47.03C289.23 46.9633 289.25 46.91 289.29 46.87C289.337 46.8233 289.394 46.8 289.46 46.8H293.02C293.087 46.8 293.14 46.8233 293.18 46.87C293.227 46.91 293.25 46.9633 293.25 47.03V47.4C293.25 47.46 293.234 47.5133 293.2 47.56C293.174 47.6067 293.144 47.6567 293.11 47.71L290.38 51.21H293.22C293.287 51.21 293.34 51.23 293.38 51.27C293.427 51.31 293.45 51.3667 293.45 51.44V51.77C293.45 51.8367 293.427 51.8933 293.38 51.94C293.34 51.98 293.287 52 293.22 52H289.37ZM296.008 52.1C295.675 52.1 295.372 52.0333 295.098 51.9C294.825 51.7667 294.605 51.5867 294.438 51.36C294.272 51.1333 294.188 50.8767 294.188 50.59C294.188 50.13 294.375 49.7633 294.748 49.49C295.122 49.2167 295.608 49.0367 296.208 48.95L297.698 48.74V48.45C297.698 48.13 297.605 47.88 297.418 47.7C297.238 47.52 296.942 47.43 296.528 47.43C296.228 47.43 295.985 47.49 295.798 47.61C295.618 47.73 295.492 47.8833 295.418 48.07C295.378 48.17 295.308 48.22 295.208 48.22H294.758C294.685 48.22 294.628 48.2 294.588 48.16C294.555 48.1133 294.538 48.06 294.538 48C294.538 47.9 294.575 47.7767 294.648 47.63C294.728 47.4833 294.848 47.34 295.008 47.2C295.168 47.06 295.372 46.9433 295.618 46.85C295.872 46.75 296.178 46.7 296.538 46.7C296.938 46.7 297.275 46.7533 297.548 46.86C297.822 46.96 298.035 47.0967 298.188 47.27C298.348 47.4433 298.462 47.64 298.528 47.86C298.602 48.08 298.638 48.3033 298.638 48.53V51.77C298.638 51.8367 298.615 51.8933 298.568 51.94C298.528 51.98 298.475 52 298.408 52H297.948C297.875 52 297.818 51.98 297.778 51.94C297.738 51.8933 297.718 51.8367 297.718 51.77V51.34C297.632 51.46 297.515 51.58 297.368 51.7C297.222 51.8133 297.038 51.91 296.818 51.99C296.598 52.0633 296.328 52.1 296.008 52.1ZM296.218 51.35C296.492 51.35 296.742 51.2933 296.968 51.18C297.195 51.06 297.372 50.8767 297.498 50.63C297.632 50.3833 297.698 50.0733 297.698 49.7V49.42L296.538 49.59C296.065 49.6567 295.708 49.77 295.468 49.93C295.228 50.0833 295.108 50.28 295.108 50.52C295.108 50.7067 295.162 50.8633 295.268 50.99C295.382 51.11 295.522 51.2 295.688 51.26C295.862 51.32 296.038 51.35 296.218 51.35Z" fill="#8189B0"/>
<path d="M266.474 84.1C265.947 84.1 265.5 84.01 265.134 83.83C264.774 83.6433 264.497 83.4033 264.304 83.11C264.117 82.8167 264.017 82.5067 264.004 82.18C263.997 82.12 264.014 82.0733 264.054 82.04C264.094 82.0067 264.144 81.99 264.204 81.99H264.744C264.804 81.99 264.857 82.0033 264.904 82.03C264.95 82.0567 264.987 82.1133 265.014 82.2C265.08 82.4467 265.187 82.65 265.334 82.81C265.487 82.9633 265.66 83.0767 265.854 83.15C266.054 83.2167 266.26 83.25 266.474 83.25C266.76 83.25 267.02 83.1933 267.254 83.08C267.494 82.96 267.684 82.7867 267.824 82.56C267.964 82.3267 268.034 82.0467 268.034 81.72C268.034 81.42 267.964 81.1633 267.824 80.95C267.69 80.73 267.504 80.5633 267.264 80.45C267.03 80.33 266.767 80.27 266.474 80.27C266.254 80.27 266.074 80.2967 265.934 80.35C265.794 80.4033 265.674 80.4667 265.574 80.54C265.48 80.6133 265.394 80.6767 265.314 80.73C265.24 80.7833 265.157 80.81 265.064 80.81H264.544C264.484 80.81 264.43 80.79 264.384 80.75C264.337 80.7033 264.317 80.65 264.324 80.59L264.644 77.25C264.65 77.17 264.674 77.11 264.714 77.07C264.76 77.0233 264.82 77 264.894 77H268.384C268.45 77 268.504 77.0233 268.544 77.07C268.59 77.11 268.614 77.1633 268.614 77.23V77.62C268.614 77.6933 268.59 77.75 268.544 77.79C268.504 77.83 268.45 77.85 268.384 77.85H265.504L265.314 79.82C265.407 79.76 265.557 79.69 265.764 79.61C265.97 79.5233 266.254 79.48 266.614 79.48C266.94 79.48 267.247 79.53 267.534 79.63C267.827 79.73 268.087 79.8767 268.314 80.07C268.54 80.2633 268.717 80.5 268.844 80.78C268.97 81.0533 269.034 81.37 269.034 81.73C269.034 82.2367 268.92 82.6667 268.694 83.02C268.474 83.3733 268.17 83.6433 267.784 83.83C267.404 84.01 266.967 84.1 266.474 84.1ZM272.661 84.1C272.201 84.1 271.811 84.03 271.491 83.89C271.178 83.7433 270.921 83.5433 270.721 83.29C270.521 83.0367 270.375 82.7467 270.281 82.42C270.195 82.0933 270.145 81.7467 270.131 81.38C270.125 81.2 270.118 81.01 270.111 80.81C270.111 80.61 270.111 80.41 270.111 80.21C270.118 80.0033 270.125 79.8067 270.131 79.62C270.138 79.2533 270.188 78.9067 270.281 78.58C270.381 78.2467 270.528 77.9567 270.721 77.71C270.921 77.4567 271.181 77.26 271.501 77.12C271.821 76.9733 272.208 76.9 272.661 76.9C273.121 76.9 273.508 76.9733 273.821 77.12C274.141 77.26 274.401 77.4567 274.601 77.71C274.801 77.9567 274.948 78.2467 275.041 78.58C275.141 78.9067 275.195 79.2533 275.201 79.62C275.208 79.8067 275.211 80.0033 275.211 80.21C275.218 80.41 275.218 80.61 275.211 80.81C275.211 81.01 275.208 81.2 275.201 81.38C275.195 81.7467 275.141 82.0933 275.041 82.42C274.948 82.7467 274.801 83.0367 274.601 83.29C274.408 83.5433 274.151 83.7433 273.831 83.89C273.518 84.03 273.128 84.1 272.661 84.1ZM272.661 83.25C273.181 83.25 273.565 83.08 273.811 82.74C274.065 82.3933 274.195 81.9233 274.201 81.33C274.215 81.1367 274.221 80.95 274.221 80.77C274.221 80.5833 274.221 80.4 274.221 80.22C274.221 80.0333 274.215 79.85 274.201 79.67C274.195 79.09 274.065 78.6267 273.811 78.28C273.565 77.9267 273.181 77.75 272.661 77.75C272.148 77.75 271.765 77.9267 271.511 78.28C271.265 78.6267 271.135 79.09 271.121 79.67C271.121 79.85 271.118 80.0333 271.111 80.22C271.111 80.4 271.111 80.5833 271.111 80.77C271.118 80.95 271.121 81.1367 271.121 81.33C271.135 81.9233 271.268 82.3933 271.521 82.74C271.775 83.08 272.155 83.25 272.661 83.25ZM276.929 84C276.789 84 276.719 83.9333 276.719 83.8C276.719 83.76 276.732 83.7233 276.759 83.69L281.699 77.19C281.746 77.13 281.789 77.0833 281.829 77.05C281.876 77.0167 281.942 77 282.029 77H282.359C282.499 77 282.569 77.0667 282.569 77.2C282.569 77.24 282.556 77.2767 282.529 77.31L277.599 83.81C277.552 83.87 277.506 83.9167 277.459 83.95C277.419 83.9833 277.352 84 277.259 84H276.929ZM281.509 84.06C281.069 84.06 280.726 83.9367 280.479 83.69C280.232 83.4433 280.096 83.12 280.069 82.72C280.062 82.5467 280.059 82.4 280.059 82.28C280.059 82.1533 280.062 81.9967 280.069 81.81C280.089 81.41 280.219 81.0867 280.459 80.84C280.699 80.5867 281.049 80.46 281.509 80.46C281.976 80.46 282.326 80.5867 282.559 80.84C282.799 81.0867 282.932 81.41 282.959 81.81C282.972 81.9967 282.979 82.1533 282.979 82.28C282.979 82.4 282.972 82.5467 282.959 82.72C282.932 83.12 282.792 83.4433 282.539 83.69C282.292 83.9367 281.949 84.06 281.509 84.06ZM281.509 83.4C281.682 83.4 281.819 83.3633 281.919 83.29C282.026 83.2167 282.102 83.1267 282.149 83.02C282.196 82.9067 282.222 82.7933 282.229 82.68C282.242 82.5 282.249 82.36 282.249 82.26C282.249 82.1533 282.242 82.0167 282.229 81.85C282.222 81.67 282.166 81.5033 282.059 81.35C281.952 81.1967 281.769 81.12 281.509 81.12C281.256 81.12 281.076 81.1967 280.969 81.35C280.869 81.5033 280.812 81.67 280.799 81.85C280.792 82.0167 280.789 82.1533 280.789 82.26C280.789 82.36 280.792 82.5 280.799 82.68C280.812 82.7933 280.839 82.9067 280.879 83.02C280.926 83.1267 280.999 83.2167 281.099 83.29C281.206 83.3633 281.342 83.4 281.509 83.4ZM277.769 80.51C277.329 80.51 276.986 80.3933 276.739 80.16C276.492 79.9267 276.356 79.61 276.329 79.21C276.322 79.0367 276.319 78.89 276.319 78.77C276.319 78.6433 276.322 78.4867 276.329 78.3C276.349 77.9 276.479 77.5767 276.719 77.33C276.959 77.0767 277.309 76.95 277.769 76.95C278.236 76.95 278.586 77.0767 278.819 77.33C279.059 77.5767 279.189 77.9 279.209 78.3C279.222 78.4867 279.229 78.6433 279.229 78.77C279.229 78.89 279.222 79.0367 279.209 79.21C279.189 79.61 279.052 79.9267 278.799 80.16C278.552 80.3933 278.209 80.51 277.769 80.51ZM277.769 79.89C277.942 79.89 278.079 79.8533 278.179 79.78C278.286 79.7067 278.362 79.6167 278.409 79.51C278.456 79.3967 278.482 79.2833 278.489 79.17C278.502 78.99 278.509 78.85 278.509 78.75C278.509 78.6433 278.502 78.5067 278.489 78.34C278.482 78.16 278.422 77.9933 278.309 77.84C278.202 77.6867 278.022 77.61 277.769 77.61C277.516 77.61 277.336 77.6867 277.229 77.84C277.129 77.9933 277.072 78.16 277.059 78.34C277.052 78.5067 277.049 78.6433 277.049 78.75C277.049 78.85 277.052 78.99 277.059 79.17C277.072 79.2833 277.099 79.3967 277.139 79.51C277.186 79.6167 277.259 79.7067 277.359 79.78C277.459 79.8533 277.596 79.89 277.769 79.89Z" fill="#8189B0"/>
<path d="M248.17 117.1C247.71 117.1 247.32 117.03 247 116.89C246.687 116.743 246.43 116.543 246.23 116.29C246.03 116.037 245.883 115.747 245.79 115.42C245.703 115.093 245.653 114.747 245.64 114.38C245.633 114.2 245.627 114.01 245.62 113.81C245.62 113.61 245.62 113.41 245.62 113.21C245.627 113.003 245.633 112.807 245.64 112.62C245.647 112.253 245.697 111.907 245.79 111.58C245.89 111.247 246.037 110.957 246.23 110.71C246.43 110.457 246.69 110.26 247.01 110.12C247.33 109.973 247.717 109.9 248.17 109.9C248.63 109.9 249.017 109.973 249.33 110.12C249.65 110.26 249.91 110.457 250.11 110.71C250.31 110.957 250.457 111.247 250.55 111.58C250.65 111.907 250.703 112.253 250.71 112.62C250.717 112.807 250.72 113.003 250.72 113.21C250.727 113.41 250.727 113.61 250.72 113.81C250.72 114.01 250.717 114.2 250.71 114.38C250.703 114.747 250.65 115.093 250.55 115.42C250.457 115.747 250.31 116.037 250.11 116.29C249.917 116.543 249.66 116.743 249.34 116.89C249.027 117.03 248.637 117.1 248.17 117.1ZM248.17 116.25C248.69 116.25 249.073 116.08 249.32 115.74C249.573 115.393 249.703 114.923 249.71 114.33C249.723 114.137 249.73 113.95 249.73 113.77C249.73 113.583 249.73 113.4 249.73 113.22C249.73 113.033 249.723 112.85 249.71 112.67C249.703 112.09 249.573 111.627 249.32 111.28C249.073 110.927 248.69 110.75 248.17 110.75C247.657 110.75 247.273 110.927 247.02 111.28C246.773 111.627 246.643 112.09 246.63 112.67C246.63 112.85 246.627 113.033 246.62 113.22C246.62 113.4 246.62 113.583 246.62 113.77C246.627 113.95 246.63 114.137 246.63 114.33C246.643 114.923 246.777 115.393 247.03 115.74C247.283 116.08 247.663 116.25 248.17 116.25ZM252.438 117C252.298 117 252.228 116.933 252.228 116.8C252.228 116.76 252.241 116.723 252.268 116.69L257.208 110.19C257.254 110.13 257.298 110.083 257.338 110.05C257.384 110.017 257.451 110 257.538 110H257.868C258.008 110 258.078 110.067 258.078 110.2C258.078 110.24 258.064 110.277 258.038 110.31L253.108 116.81C253.061 116.87 253.014 116.917 252.968 116.95C252.928 116.983 252.861 117 252.768 117H252.438ZM257.018 117.06C256.578 117.06 256.234 116.937 255.988 116.69C255.741 116.443 255.604 116.12 255.578 115.72C255.571 115.547 255.568 115.4 255.568 115.28C255.568 115.153 255.571 114.997 255.578 114.81C255.598 114.41 255.728 114.087 255.968 113.84C256.208 113.587 256.558 113.46 257.018 113.46C257.484 113.46 257.834 113.587 258.068 113.84C258.308 114.087 258.441 114.41 258.468 114.81C258.481 114.997 258.488 115.153 258.488 115.28C258.488 115.4 258.481 115.547 258.468 115.72C258.441 116.12 258.301 116.443 258.048 116.69C257.801 116.937 257.458 117.06 257.018 117.06ZM257.018 116.4C257.191 116.4 257.328 116.363 257.428 116.29C257.534 116.217 257.611 116.127 257.658 116.02C257.704 115.907 257.731 115.793 257.738 115.68C257.751 115.5 257.758 115.36 257.758 115.26C257.758 115.153 257.751 115.017 257.738 114.85C257.731 114.67 257.674 114.503 257.568 114.35C257.461 114.197 257.278 114.12 257.018 114.12C256.764 114.12 256.584 114.197 256.478 114.35C256.378 114.503 256.321 114.67 256.308 114.85C256.301 115.017 256.298 115.153 256.298 115.26C256.298 115.36 256.301 115.5 256.308 115.68C256.321 115.793 256.348 115.907 256.388 116.02C256.434 116.127 256.508 116.217 256.608 116.29C256.714 116.363 256.851 116.4 257.018 116.4ZM253.278 113.51C252.838 113.51 252.494 113.393 252.248 113.16C252.001 112.927 251.864 112.61 251.838 112.21C251.831 112.037 251.828 111.89 251.828 111.77C251.828 111.643 251.831 111.487 251.838 111.3C251.858 110.9 251.988 110.577 252.228 110.33C252.468 110.077 252.818 109.95 253.278 109.95C253.744 109.95 254.094 110.077 254.328 110.33C254.568 110.577 254.698 110.9 254.718 111.3C254.731 111.487 254.738 111.643 254.738 111.77C254.738 111.89 254.731 112.037 254.718 112.21C254.698 112.61 254.561 112.927 254.308 113.16C254.061 113.393 253.718 113.51 253.278 113.51ZM253.278 112.89C253.451 112.89 253.588 112.853 253.688 112.78C253.794 112.707 253.871 112.617 253.918 112.51C253.964 112.397 253.991 112.283 253.998 112.17C254.011 111.99 254.018 111.85 254.018 111.75C254.018 111.643 254.011 111.507 253.998 111.34C253.991 111.16 253.931 110.993 253.818 110.84C253.711 110.687 253.531 110.61 253.278 110.61C253.024 110.61 252.844 110.687 252.738 110.84C252.638 110.993 252.581 111.16 252.568 111.34C252.561 111.507 252.558 111.643 252.558 111.75C252.558 111.85 252.561 111.99 252.568 112.17C252.581 112.283 252.608 112.397 252.648 112.51C252.694 112.617 252.768 112.707 252.868 112.78C252.968 112.853 253.104 112.89 253.278 112.89ZM262.506 117C262.433 117 262.376 116.98 262.336 116.94C262.296 116.893 262.276 116.837 262.276 116.77V110.23C262.276 110.163 262.296 110.11 262.336 110.07C262.376 110.023 262.433 110 262.506 110H263.036C263.103 110 263.156 110.023 263.196 110.07C263.243 110.11 263.266 110.163 263.266 110.23V116.77C263.266 116.837 263.243 116.893 263.196 116.94C263.156 116.98 263.103 117 263.036 117H262.506ZM265.111 117C265.044 117 264.987 116.98 264.941 116.94C264.901 116.893 264.881 116.837 264.881 116.77V112.03C264.881 111.963 264.901 111.91 264.941 111.87C264.987 111.823 265.044 111.8 265.111 111.8H265.581C265.647 111.8 265.701 111.823 265.741 111.87C265.787 111.91 265.811 111.963 265.811 112.03V112.47C265.984 112.243 266.201 112.06 266.461 111.92C266.727 111.773 267.067 111.7 267.481 111.7C267.914 111.7 268.281 111.797 268.581 111.99C268.887 112.177 269.117 112.44 269.271 112.78C269.424 113.113 269.501 113.503 269.501 113.95V116.77C269.501 116.837 269.481 116.893 269.441 116.94C269.401 116.98 269.347 117 269.281 117H268.781C268.714 117 268.657 116.98 268.611 116.94C268.571 116.893 268.551 116.837 268.551 116.77V114C268.551 113.533 268.437 113.17 268.211 112.91C267.984 112.643 267.651 112.51 267.211 112.51C266.797 112.51 266.464 112.643 266.211 112.91C265.964 113.17 265.841 113.533 265.841 114V116.77C265.841 116.837 265.817 116.893 265.771 116.94C265.731 116.98 265.677 117 265.611 117H265.111ZM272.845 117.1C272.478 117.1 272.162 117.037 271.895 116.91C271.628 116.777 271.408 116.6 271.235 116.38C271.068 116.153 270.942 115.897 270.855 115.61C270.775 115.323 270.728 115.02 270.715 114.7C270.708 114.593 270.705 114.493 270.705 114.4C270.705 114.307 270.708 114.207 270.715 114.1C270.728 113.787 270.775 113.487 270.855 113.2C270.942 112.913 271.068 112.657 271.235 112.43C271.408 112.203 271.628 112.027 271.895 111.9C272.162 111.767 272.478 111.7 272.845 111.7C273.238 111.7 273.565 111.77 273.825 111.91C274.085 112.05 274.298 112.223 274.465 112.43V110.13C274.465 110.063 274.485 110.01 274.525 109.97C274.572 109.923 274.628 109.9 274.695 109.9H275.175C275.242 109.9 275.295 109.923 275.335 109.97C275.382 110.01 275.405 110.063 275.405 110.13V116.77C275.405 116.837 275.382 116.893 275.335 116.94C275.295 116.98 275.242 117 275.175 117H274.725C274.652 117 274.595 116.98 274.555 116.94C274.515 116.893 274.495 116.837 274.495 116.77V116.35C274.328 116.563 274.112 116.743 273.845 116.89C273.578 117.03 273.245 117.1 272.845 117.1ZM273.055 116.29C273.388 116.29 273.655 116.213 273.855 116.06C274.055 115.907 274.205 115.713 274.305 115.48C274.405 115.24 274.458 114.997 274.465 114.75C274.472 114.643 274.475 114.517 274.475 114.37C274.475 114.217 274.472 114.087 274.465 113.98C274.458 113.747 274.402 113.517 274.295 113.29C274.195 113.063 274.042 112.877 273.835 112.73C273.635 112.583 273.375 112.51 273.055 112.51C272.715 112.51 272.445 112.587 272.245 112.74C272.045 112.887 271.902 113.083 271.815 113.33C271.728 113.57 271.678 113.83 271.665 114.11C271.658 114.303 271.658 114.497 271.665 114.69C271.678 114.97 271.728 115.233 271.815 115.48C271.902 115.72 272.045 115.917 272.245 116.07C272.445 116.217 272.715 116.29 273.055 116.29ZM277.122 117C277.056 117 276.999 116.98 276.952 116.94C276.912 116.893 276.892 116.837 276.892 116.77V112.03C276.892 111.963 276.912 111.91 276.952 111.87C276.999 111.823 277.056 111.8 277.122 111.8H277.602C277.669 111.8 277.722 111.823 277.762 111.87C277.802 111.91 277.822 111.963 277.822 112.03V116.77C277.822 116.837 277.802 116.893 277.762 116.94C277.722 116.98 277.669 117 277.602 117H277.122ZM277.042 110.83C276.976 110.83 276.919 110.81 276.872 110.77C276.832 110.723 276.812 110.667 276.812 110.6V110.06C276.812 109.993 276.832 109.94 276.872 109.9C276.919 109.853 276.976 109.83 277.042 109.83H277.672C277.739 109.83 277.792 109.853 277.832 109.9C277.879 109.94 277.902 109.993 277.902 110.06V110.6C277.902 110.667 277.879 110.723 277.832 110.77C277.792 110.81 277.739 110.83 277.672 110.83H277.042ZM281.444 119.2C280.991 119.2 280.618 119.14 280.324 119.02C280.038 118.9 279.811 118.753 279.644 118.58C279.484 118.413 279.368 118.243 279.294 118.07C279.228 117.903 279.191 117.77 279.184 117.67C279.178 117.603 279.198 117.547 279.244 117.5C279.298 117.453 279.354 117.43 279.414 117.43H279.894C279.954 117.43 280.004 117.443 280.044 117.47C280.084 117.497 280.118 117.553 280.144 117.64C280.184 117.74 280.244 117.85 280.324 117.97C280.404 118.097 280.528 118.203 280.694 118.29C280.861 118.383 281.094 118.43 281.394 118.43C281.708 118.43 281.971 118.387 282.184 118.3C282.398 118.22 282.558 118.073 282.664 117.86C282.778 117.653 282.834 117.367 282.834 117V116.32C282.674 116.527 282.464 116.7 282.204 116.84C281.944 116.973 281.618 117.04 281.224 117.04C280.851 117.04 280.531 116.977 280.264 116.85C279.998 116.717 279.778 116.54 279.604 116.32C279.438 116.093 279.311 115.837 279.224 115.55C279.144 115.263 279.098 114.963 279.084 114.65C279.078 114.463 279.078 114.28 279.084 114.1C279.098 113.787 279.144 113.487 279.224 113.2C279.311 112.913 279.438 112.657 279.604 112.43C279.778 112.203 279.998 112.027 280.264 111.9C280.531 111.767 280.851 111.7 281.224 111.7C281.624 111.7 281.954 111.777 282.214 111.93C282.481 112.077 282.698 112.257 282.864 112.47V112.04C282.864 111.973 282.884 111.917 282.924 111.87C282.971 111.823 283.028 111.8 283.094 111.8H283.554C283.621 111.8 283.678 111.823 283.724 111.87C283.771 111.917 283.794 111.973 283.794 112.04V116.89C283.794 117.337 283.718 117.733 283.564 118.08C283.418 118.427 283.171 118.7 282.824 118.9C282.484 119.1 282.024 119.2 281.444 119.2ZM281.424 116.24C281.758 116.24 282.024 116.163 282.224 116.01C282.431 115.857 282.581 115.663 282.674 115.43C282.774 115.197 282.828 114.96 282.834 114.72C282.841 114.627 282.844 114.513 282.844 114.38C282.844 114.24 282.841 114.123 282.834 114.03C282.828 113.79 282.774 113.553 282.674 113.32C282.581 113.087 282.431 112.893 282.224 112.74C282.024 112.587 281.758 112.51 281.424 112.51C281.091 112.51 280.824 112.587 280.624 112.74C280.424 112.887 280.281 113.083 280.194 113.33C280.108 113.57 280.058 113.83 280.044 114.11C280.038 114.283 280.038 114.46 280.044 114.64C280.058 114.92 280.108 115.183 280.194 115.43C280.281 115.67 280.424 115.867 280.624 116.02C280.824 116.167 281.091 116.24 281.424 116.24ZM287.351 117.1C286.664 117.1 286.118 116.89 285.711 116.47C285.304 116.043 285.081 115.463 285.041 114.73C285.034 114.643 285.031 114.533 285.031 114.4C285.031 114.26 285.034 114.147 285.041 114.06C285.068 113.587 285.178 113.173 285.371 112.82C285.564 112.46 285.828 112.183 286.161 111.99C286.501 111.797 286.898 111.7 287.351 111.7C287.858 111.7 288.281 111.807 288.621 112.02C288.968 112.233 289.231 112.537 289.411 112.93C289.591 113.323 289.681 113.783 289.681 114.31V114.48C289.681 114.553 289.658 114.61 289.611 114.65C289.571 114.69 289.518 114.71 289.451 114.71H285.991C285.991 114.717 285.991 114.73 285.991 114.75C285.991 114.77 285.991 114.787 285.991 114.8C286.004 115.073 286.064 115.33 286.171 115.57C286.278 115.803 286.431 115.993 286.631 116.14C286.831 116.287 287.071 116.36 287.351 116.36C287.591 116.36 287.791 116.323 287.951 116.25C288.111 116.177 288.241 116.097 288.341 116.01C288.441 115.917 288.508 115.847 288.541 115.8C288.601 115.713 288.648 115.663 288.681 115.65C288.714 115.63 288.768 115.62 288.841 115.62H289.321C289.388 115.62 289.441 115.64 289.481 115.68C289.528 115.713 289.548 115.763 289.541 115.83C289.534 115.93 289.481 116.053 289.381 116.2C289.281 116.34 289.138 116.48 288.951 116.62C288.764 116.76 288.538 116.877 288.271 116.97C288.004 117.057 287.698 117.1 287.351 117.1ZM285.991 114.02H288.731V113.99C288.731 113.69 288.674 113.423 288.561 113.19C288.454 112.957 288.298 112.773 288.091 112.64C287.884 112.5 287.638 112.43 287.351 112.43C287.064 112.43 286.818 112.5 286.611 112.64C286.411 112.773 286.258 112.957 286.151 113.19C286.044 113.423 285.991 113.69 285.991 113.99V114.02ZM291.107 117C291.04 117 290.983 116.98 290.937 116.94C290.897 116.893 290.877 116.837 290.877 116.77V112.03C290.877 111.963 290.897 111.91 290.937 111.87C290.983 111.823 291.04 111.8 291.107 111.8H291.577C291.643 111.8 291.697 111.823 291.737 111.87C291.783 111.91 291.807 111.963 291.807 112.03V112.47C291.98 112.243 292.197 112.06 292.457 111.92C292.723 111.773 293.063 111.7 293.477 111.7C293.91 111.7 294.277 111.797 294.577 111.99C294.883 112.177 295.113 112.44 295.267 112.78C295.42 113.113 295.497 113.503 295.497 113.95V116.77C295.497 116.837 295.477 116.893 295.437 116.94C295.397 116.98 295.343 117 295.277 117H294.777C294.71 117 294.653 116.98 294.607 116.94C294.567 116.893 294.547 116.837 294.547 116.77V114C294.547 113.533 294.433 113.17 294.207 112.91C293.98 112.643 293.647 112.51 293.207 112.51C292.793 112.51 292.46 112.643 292.207 112.91C291.96 113.17 291.837 113.533 291.837 114V116.77C291.837 116.837 291.813 116.893 291.767 116.94C291.727 116.98 291.673 117 291.607 117H291.107ZM299.041 117.1C298.568 117.1 298.158 117.01 297.811 116.83C297.471 116.643 297.208 116.38 297.021 116.04C296.835 115.693 296.735 115.28 296.721 114.8C296.715 114.7 296.711 114.567 296.711 114.4C296.711 114.233 296.715 114.1 296.721 114C296.735 113.52 296.835 113.11 297.021 112.77C297.208 112.423 297.471 112.16 297.811 111.98C298.158 111.793 298.568 111.7 299.041 111.7C299.428 111.7 299.758 111.753 300.031 111.86C300.311 111.967 300.541 112.103 300.721 112.27C300.901 112.437 301.035 112.617 301.121 112.81C301.215 113.003 301.265 113.187 301.271 113.36C301.278 113.427 301.258 113.48 301.211 113.52C301.165 113.56 301.108 113.58 301.041 113.58H300.561C300.495 113.58 300.445 113.567 300.411 113.54C300.378 113.507 300.345 113.453 300.311 113.38C300.191 113.053 300.028 112.823 299.821 112.69C299.615 112.557 299.358 112.49 299.051 112.49C298.651 112.49 298.325 112.613 298.071 112.86C297.825 113.107 297.691 113.503 297.671 114.05C297.665 114.29 297.665 114.523 297.671 114.75C297.691 115.303 297.825 115.703 298.071 115.95C298.325 116.19 298.651 116.31 299.051 116.31C299.358 116.31 299.615 116.243 299.821 116.11C300.028 115.977 300.191 115.747 300.311 115.42C300.345 115.347 300.378 115.297 300.411 115.27C300.445 115.237 300.495 115.22 300.561 115.22H301.041C301.108 115.22 301.165 115.24 301.211 115.28C301.258 115.32 301.278 115.373 301.271 115.44C301.265 115.58 301.235 115.723 301.181 115.87C301.128 116.017 301.041 116.167 300.921 116.32C300.808 116.467 300.665 116.6 300.491 116.72C300.318 116.833 300.108 116.927 299.861 117C299.621 117.067 299.348 117.1 299.041 117.1ZM302.689 117C302.622 117 302.565 116.98 302.519 116.94C302.479 116.893 302.459 116.837 302.459 116.77V112.03C302.459 111.963 302.479 111.91 302.519 111.87C302.565 111.823 302.622 111.8 302.689 111.8H303.169C303.235 111.8 303.289 111.823 303.329 111.87C303.369 111.91 303.389 111.963 303.389 112.03V116.77C303.389 116.837 303.369 116.893 303.329 116.94C303.289 116.98 303.235 117 303.169 117H302.689ZM302.609 110.83C302.542 110.83 302.485 110.81 302.439 110.77C302.399 110.723 302.379 110.667 302.379 110.6V110.06C302.379 109.993 302.399 109.94 302.439 109.9C302.485 109.853 302.542 109.83 302.609 109.83H303.239C303.305 109.83 303.359 109.853 303.399 109.9C303.445 109.94 303.469 109.993 303.469 110.06V110.6C303.469 110.667 303.445 110.723 303.399 110.77C303.359 110.81 303.305 110.83 303.239 110.83H302.609ZM306.331 117.1C305.997 117.1 305.694 117.033 305.421 116.9C305.147 116.767 304.927 116.587 304.761 116.36C304.594 116.133 304.511 115.877 304.511 115.59C304.511 115.13 304.697 114.763 305.071 114.49C305.444 114.217 305.931 114.037 306.531 113.95L308.021 113.74V113.45C308.021 113.13 307.927 112.88 307.741 112.7C307.561 112.52 307.264 112.43 306.851 112.43C306.551 112.43 306.307 112.49 306.121 112.61C305.941 112.73 305.814 112.883 305.741 113.07C305.701 113.17 305.631 113.22 305.531 113.22H305.081C305.007 113.22 304.951 113.2 304.911 113.16C304.877 113.113 304.861 113.06 304.861 113C304.861 112.9 304.897 112.777 304.971 112.63C305.051 112.483 305.171 112.34 305.331 112.2C305.491 112.06 305.694 111.943 305.941 111.85C306.194 111.75 306.501 111.7 306.861 111.7C307.261 111.7 307.597 111.753 307.871 111.86C308.144 111.96 308.357 112.097 308.511 112.27C308.671 112.443 308.784 112.64 308.851 112.86C308.924 113.08 308.961 113.303 308.961 113.53V116.77C308.961 116.837 308.937 116.893 308.891 116.94C308.851 116.98 308.797 117 308.731 117H308.271C308.197 117 308.141 116.98 308.101 116.94C308.061 116.893 308.041 116.837 308.041 116.77V116.34C307.954 116.46 307.837 116.58 307.691 116.7C307.544 116.813 307.361 116.91 307.141 116.99C306.921 117.063 306.651 117.1 306.331 117.1ZM306.541 116.35C306.814 116.35 307.064 116.293 307.291 116.18C307.517 116.06 307.694 115.877 307.821 115.63C307.954 115.383 308.021 115.073 308.021 114.7V114.42L306.861 114.59C306.387 114.657 306.031 114.77 305.791 114.93C305.551 115.083 305.431 115.28 305.431 115.52C305.431 115.707 305.484 115.863 305.591 115.99C305.704 116.11 305.844 116.2 306.011 116.26C306.184 116.32 306.361 116.35 306.541 116.35Z" fill="#8189B0"/>
<path d="M265.293 64.584C265.469 64.4082 265.684 64.3203 265.938 64.3203C266.211 64.3203 266.436 64.4082 266.611 64.584L270.684 68.7148C270.684 68.6758 270.674 68.6074 270.654 68.5098C270.654 68.3926 270.654 68.1387 270.654 67.748C270.654 67.3574 270.645 66.7617 270.625 65.9609C270.625 65.1406 270.625 64.0078 270.625 62.5625H272.5L272.471 68.7148L276.543 64.584C276.719 64.4082 276.934 64.3203 277.188 64.3203C277.461 64.3203 277.686 64.4082 277.861 64.584C278.037 64.7793 278.125 65.0039 278.125 65.2578C278.125 65.5117 278.037 65.7266 277.861 65.9023L272.236 71.6738C272.197 71.6738 272.148 71.7031 272.09 71.7617C272.051 71.7812 272.012 71.8008 271.973 71.8203C271.953 71.8398 271.924 71.8594 271.885 71.8789L271.738 71.9082C271.719 71.9277 271.66 71.9375 271.562 71.9375C271.543 71.9375 271.504 71.9277 271.445 71.9082C271.406 71.9082 271.338 71.8984 271.24 71.8789C271.201 71.8594 271.172 71.8398 271.152 71.8203C271.152 71.8203 271.133 71.8105 271.094 71.791C271.055 71.7715 271.025 71.752 271.006 71.7324C271.006 71.7324 270.986 71.7227 270.947 71.7031L270.918 71.6738H270.889L265.293 65.9023C265.098 65.7266 265 65.5117 265 65.2578C265 65.0039 265.098 64.7793 265.293 64.584ZM270.625 60.6875H272.5V61.625H270.625V60.6875ZM270.625 58.8125H272.5V59.75H270.625V58.8125ZM272.5 56.9375V57.875H270.625V56.9375H272.5Z" fill="#C7E2FF"/>
<path d="M277.707 98.416C277.531 98.5918 277.316 98.6797 277.062 98.6797C276.789 98.6797 276.564 98.5918 276.389 98.416L272.316 94.2852C272.316 94.3242 272.326 94.3926 272.346 94.4902C272.346 94.6074 272.346 94.8613 272.346 95.252C272.346 95.6426 272.355 96.2383 272.375 97.0391C272.375 97.8594 272.375 98.9922 272.375 100.438L270.5 100.438L270.529 94.2852L266.457 98.416C266.281 98.5918 266.066 98.6797 265.812 98.6797C265.539 98.6797 265.314 98.5918 265.139 98.416C264.963 98.2207 264.875 97.9961 264.875 97.7422C264.875 97.4883 264.963 97.2734 265.139 97.0977L270.764 91.3262C270.803 91.3262 270.852 91.2969 270.91 91.2383C270.949 91.2188 270.988 91.1992 271.027 91.1797C271.047 91.1602 271.076 91.1406 271.115 91.1211L271.262 91.0918C271.281 91.0723 271.34 91.0625 271.437 91.0625C271.457 91.0625 271.496 91.0723 271.555 91.0918C271.594 91.0918 271.662 91.1016 271.76 91.1211C271.799 91.1406 271.828 91.1602 271.848 91.1797C271.848 91.1797 271.867 91.1895 271.906 91.209C271.945 91.2285 271.975 91.248 271.994 91.2676C271.994 91.2676 272.014 91.2773 272.053 91.2969L272.082 91.3262L272.111 91.3262L277.707 97.0977C277.902 97.2734 278 97.4883 278 97.7422C278 97.9961 277.902 98.2207 277.707 98.416ZM272.375 102.313L270.5 102.313L270.5 101.375L272.375 101.375L272.375 102.313ZM272.375 104.188L270.5 104.188L270.5 103.25L272.375 103.25L272.375 104.188ZM270.5 106.063L270.5 105.125L272.375 105.125L272.375 106.063L270.5 106.063Z" fill="#C7E2FF"/>
</svg>
