<svg width="137" height="20" viewBox="0 0 137 20" fill="none" xmlns="http://www.w3.org/2000/svg">
<path d="M29.7557 11.9318H31.0597L32.1527 13.37L32.4403 13.7536L34.0703 15.9205H32.7663L31.6925 14.4822L31.424 14.1179L29.7557 11.9318ZM34.473 10.0909C34.473 11.1264 34.286 12.0213 33.9121 12.7756C33.5382 13.5298 33.0252 14.1115 32.3732 14.5206C31.7212 14.9297 30.9766 15.1342 30.1392 15.1342C29.3018 15.1342 28.5572 14.9297 27.9052 14.5206C27.2532 14.1115 26.7402 13.5298 26.3663 12.7756C25.9924 12.0213 25.8054 11.1264 25.8054 10.0909C25.8054 9.0554 25.9924 8.16051 26.3663 7.40625C26.7402 6.65199 27.2532 6.07031 27.9052 5.66122C28.5572 5.25213 29.3018 5.04758 30.1392 5.04758C30.9766 5.04758 31.7212 5.25213 32.3732 5.66122C33.0252 6.07031 33.5382 6.65199 33.9121 7.40625C34.286 8.16051 34.473 9.0554 34.473 10.0909ZM33.3224 10.0909C33.3224 9.24077 33.1802 8.52326 32.8958 7.93839C32.6145 7.35352 32.2326 6.91087 31.75 6.61044C31.2706 6.31001 30.7337 6.1598 30.1392 6.1598C29.5447 6.1598 29.0062 6.31001 28.5236 6.61044C28.0442 6.91087 27.6623 7.35352 27.3778 7.93839C27.0966 8.52326 26.956 9.24077 26.956 10.0909C26.956 10.9411 27.0966 11.6586 27.3778 12.2434C27.6623 12.8283 28.0442 13.271 28.5236 13.5714C29.0062 13.8718 29.5447 14.022 30.1392 14.022C30.7337 14.022 31.2706 13.8718 31.75 13.5714C32.2326 13.271 32.6145 12.8283 32.8958 12.2434C33.1802 11.6586 33.3224 10.9411 33.3224 10.0909ZM40.9593 11.9893V7.63636H42.0907V15H40.9593V13.7536H40.8826C40.71 14.1275 40.4416 14.4455 40.0772 14.7076C39.7129 14.9664 39.2527 15.0959 38.6966 15.0959C38.2363 15.0959 37.8272 14.9952 37.4693 14.7939C37.1113 14.5893 36.8301 14.2825 36.6255 13.8734C36.421 13.4611 36.3187 12.9418 36.3187 12.3153V7.63636H37.4501V12.2386C37.4501 12.7756 37.6003 13.2038 37.9007 13.5234C38.2044 13.843 38.5911 14.0028 39.0609 14.0028C39.3422 14.0028 39.6282 13.9309 39.919 13.7871C40.2131 13.6433 40.4592 13.4228 40.6573 13.1255C40.8587 12.8283 40.9593 12.4496 40.9593 11.9893ZM44.163 15V7.63636H45.2943V15H44.163ZM44.7382 6.40909C44.5177 6.40909 44.3275 6.33398 44.1677 6.18377C44.0111 6.03356 43.9328 5.85298 43.9328 5.64205C43.9328 5.43111 44.0111 5.25053 44.1677 5.10032C44.3275 4.95011 44.5177 4.875 44.7382 4.875C44.9588 4.875 45.1473 4.95011 45.3039 5.10032C45.4637 5.25053 45.5436 5.43111 45.5436 5.64205C45.5436 5.85298 45.4637 6.03356 45.3039 6.18377C45.1473 6.33398 44.9588 6.40909 44.7382 6.40909ZM50.4539 15.1534C49.7444 15.1534 49.1324 14.9968 48.6178 14.6836C48.1064 14.3672 47.7117 13.9261 47.4337 13.3604C47.1588 12.7915 47.0214 12.13 47.0214 11.3757C47.0214 10.6214 47.1588 9.95668 47.4337 9.38139C47.7117 8.80291 48.0985 8.35227 48.5938 8.02947C49.0924 7.70348 49.6741 7.54048 50.3389 7.54048C50.7224 7.54048 51.1011 7.6044 51.4751 7.73224C51.849 7.86008 52.1894 8.06783 52.4962 8.35547C52.803 8.63991 53.0475 9.01705 53.2297 9.48686C53.4118 9.95668 53.5029 10.5352 53.5029 11.2223V11.7017H47.8268V10.7237H52.3524C52.3524 10.3082 52.2693 9.9375 52.1031 9.61151C51.9401 9.28551 51.7068 9.02823 51.4031 8.83967C51.1027 8.6511 50.748 8.55682 50.3389 8.55682C49.8882 8.55682 49.4983 8.66868 49.1691 8.8924C48.8431 9.11293 48.5922 9.40057 48.4165 9.75533C48.2407 10.1101 48.1528 10.4904 48.1528 10.8963V11.5483C48.1528 12.1044 48.2487 12.5758 48.4404 12.9625C48.6354 13.3461 48.9055 13.6385 49.2506 13.8398C49.5958 14.038 49.9969 14.1371 50.4539 14.1371C50.7512 14.1371 51.0196 14.0955 51.2593 14.0124C51.5022 13.9261 51.7116 13.7983 51.8873 13.6289C52.0631 13.4563 52.199 13.2422 52.2948 12.9865L53.3879 13.2933C53.2728 13.6641 53.0795 13.9901 52.8078 14.2713C52.5361 14.5494 52.2006 14.7667 51.801 14.9233C51.4015 15.0767 50.9525 15.1534 50.4539 15.1534ZM55.224 15V7.63636H56.317V8.74858H56.3937C56.528 8.38423 56.7709 8.0886 57.1224 7.86168C57.474 7.63477 57.8703 7.52131 58.3113 7.52131C58.3944 7.52131 58.4983 7.5229 58.623 7.5261C58.7476 7.5293 58.8419 7.53409 58.9058 7.54048V8.69105C58.8675 8.68146 58.7796 8.66708 58.6421 8.6479C58.5079 8.62553 58.3657 8.61435 58.2155 8.61435C57.8575 8.61435 57.5379 8.68945 57.2567 8.83967C56.9786 8.98668 56.7581 9.19123 56.5951 9.4533C56.4353 9.71218 56.3554 10.0078 56.3554 10.3402V15H55.224ZM63.0143 15.1534C62.3495 15.1534 61.7662 14.9952 61.2645 14.6788C60.7659 14.3624 60.376 13.9197 60.0947 13.3509C59.8167 12.782 59.6776 12.1172 59.6776 11.3565C59.6776 10.5895 59.8167 9.91992 60.0947 9.34783C60.376 8.77575 60.7659 8.3315 61.2645 8.01509C61.7662 7.69869 62.3495 7.54048 63.0143 7.54048C63.6791 7.54048 64.2607 7.69869 64.7593 8.01509C65.2611 8.3315 65.651 8.77575 65.9291 9.34783C66.2103 9.91992 66.3509 10.5895 66.3509 11.3565C66.3509 12.1172 66.2103 12.782 65.9291 13.3509C65.651 13.9197 65.2611 14.3624 64.7593 14.6788C64.2607 14.9952 63.6791 15.1534 63.0143 15.1534ZM63.0143 14.1371C63.5193 14.1371 63.9347 14.0076 64.2607 13.7488C64.5867 13.4899 64.828 13.1495 64.9846 12.7276C65.1412 12.3058 65.2195 11.8487 65.2195 11.3565C65.2195 10.8643 65.1412 10.4057 64.9846 9.98065C64.828 9.55558 64.5867 9.212 64.2607 8.94993C63.9347 8.68785 63.5193 8.55682 63.0143 8.55682C62.5093 8.55682 62.0938 8.68785 61.7678 8.94993C61.4419 9.212 61.2006 9.55558 61.0439 9.98065C60.8873 10.4057 60.809 10.8643 60.809 11.3565C60.809 11.8487 60.8873 12.3058 61.0439 12.7276C61.2006 13.1495 61.4419 13.4899 61.7678 13.7488C62.0938 14.0076 62.5093 14.1371 63.0143 14.1371ZM84.2627 15V5.18182H87.6952C88.3791 5.18182 88.9432 5.30007 89.3875 5.53658C89.8317 5.76989 90.1625 6.08469 90.3798 6.481C90.5972 6.87411 90.7058 7.31037 90.7058 7.78977C90.7058 8.21165 90.6307 8.56001 90.4805 8.83487C90.3335 9.10973 90.1385 9.32706 89.8956 9.48686C89.6559 9.64666 89.3955 9.76491 89.1142 9.84162V9.9375C89.4146 9.95668 89.7167 10.0621 90.0203 10.2539C90.3239 10.4457 90.578 10.7205 90.7825 11.0785C90.9871 11.4364 91.0894 11.8743 91.0894 12.392C91.0894 12.8842 90.9775 13.3269 90.7538 13.72C90.5301 14.1131 90.1769 14.4247 89.6943 14.6548C89.2117 14.8849 88.5837 15 87.8102 15H84.2627ZM85.4516 13.9453H87.8102C88.5869 13.9453 89.1382 13.7951 89.4642 13.4947C89.7934 13.1911 89.958 12.8235 89.958 12.392C89.958 12.0597 89.8733 11.7528 89.7039 11.4716C89.5345 11.1871 89.2932 10.9602 88.98 10.7908C88.6668 10.6183 88.296 10.532 87.8678 10.532H85.4516V13.9453ZM85.4516 9.49645H87.6568C88.0148 9.49645 88.3376 9.42614 88.6252 9.28551C88.9161 9.14489 89.1462 8.94673 89.3156 8.69105C89.4881 8.43537 89.5744 8.13494 89.5744 7.78977C89.5744 7.35831 89.4242 6.99237 89.1238 6.69194C88.8234 6.38832 88.3472 6.23651 87.6952 6.23651H85.4516V9.49645ZM95.0564 15.1726C94.5898 15.1726 94.1663 15.0847 93.786 14.9089C93.4057 14.7299 93.1036 14.4727 92.8799 14.1371C92.6562 13.7983 92.5443 13.3892 92.5443 12.9098C92.5443 12.4879 92.6274 12.146 92.7936 11.8839C92.9598 11.6186 93.182 11.4109 93.46 11.2607C93.7381 11.1104 94.0449 10.9986 94.3805 10.9251C94.7192 10.8484 95.0596 10.7876 95.4016 10.7429C95.849 10.6854 96.2118 10.6422 96.4898 10.6135C96.7711 10.5815 96.9756 10.5288 97.1035 10.4553C97.2345 10.3817 97.3 10.2539 97.3 10.0717V10.0334C97.3 9.56037 97.1706 9.19283 96.9117 8.93075C96.656 8.66868 96.2677 8.53764 95.7468 8.53764C95.2066 8.53764 94.7832 8.65589 94.4763 8.8924C94.1695 9.12891 93.9538 9.38139 93.8291 9.64986L92.7553 9.26633C92.947 8.81889 93.2027 8.47053 93.5223 8.22124C93.8451 7.96875 94.1967 7.79297 94.577 7.69389C94.9605 7.59162 95.3377 7.54048 95.7084 7.54048C95.9449 7.54048 96.2166 7.56925 96.5234 7.62678C96.8334 7.68111 97.1322 7.79457 97.4199 7.96715C97.7107 8.13974 97.952 8.40021 98.1438 8.74858C98.3355 9.09695 98.4314 9.56357 98.4314 10.1484V15H97.3V14.0028H97.2425C97.1658 14.1626 97.038 14.3336 96.859 14.5158C96.68 14.698 96.4419 14.853 96.1447 14.9808C95.8474 15.1087 95.4847 15.1726 95.0564 15.1726ZM95.229 14.1562C95.6764 14.1562 96.0536 14.0684 96.3604 13.8926C96.6704 13.7168 96.9037 13.4899 97.0603 13.2118C97.2201 12.9338 97.3 12.6413 97.3 12.3345V11.299C97.2521 11.3565 97.1466 11.4093 96.9836 11.4572C96.8238 11.502 96.6384 11.5419 96.4275 11.5771C96.2198 11.609 96.0168 11.6378 95.8187 11.6634C95.6237 11.6857 95.4655 11.7049 95.3441 11.7209C95.05 11.7592 94.7752 11.8216 94.5195 11.9078C94.267 11.9909 94.0625 12.1172 93.9059 12.2866C93.7524 12.4528 93.6757 12.6797 93.6757 12.9673C93.6757 13.3604 93.8212 13.6577 94.112 13.859C94.406 14.0572 94.7784 14.1562 95.229 14.1562ZM101.628 10.5703V15H100.496V7.63636H101.589V8.78693H101.685C101.858 8.413 102.12 8.11257 102.472 7.88565C102.823 7.65554 103.277 7.54048 103.833 7.54048C104.332 7.54048 104.768 7.64276 105.142 7.8473C105.516 8.04865 105.807 8.35547 106.014 8.76776C106.222 9.17685 106.326 9.6946 106.326 10.321V15H105.195V10.3977C105.195 9.81925 105.044 9.36861 104.744 9.04581C104.444 8.71982 104.031 8.55682 103.507 8.55682C103.146 8.55682 102.823 8.63512 102.539 8.79173C102.257 8.94833 102.035 9.17685 101.872 9.47727C101.709 9.7777 101.628 10.142 101.628 10.5703ZM111.174 15.1534C110.56 15.1534 110.019 14.9984 109.549 14.6884C109.079 14.3752 108.711 13.9341 108.446 13.3652C108.181 12.7931 108.048 12.1172 108.048 11.3374C108.048 10.5639 108.181 9.89276 108.446 9.32386C108.711 8.75497 109.081 8.31552 109.554 8.0055C110.027 7.69549 110.573 7.54048 111.193 7.54048C111.673 7.54048 112.051 7.62038 112.329 7.78018C112.611 7.93679 112.825 8.11577 112.972 8.31712C113.122 8.51527 113.239 8.67827 113.322 8.80611H113.418V5.18182H114.549V15H113.456V13.8686H113.322C113.239 14.0028 113.12 14.1722 112.967 14.3768C112.814 14.5781 112.595 14.7587 112.31 14.9185C112.026 15.0751 111.647 15.1534 111.174 15.1534ZM111.327 14.1371C111.781 14.1371 112.165 14.0188 112.478 13.7823C112.791 13.5426 113.029 13.2118 113.192 12.79C113.355 12.3649 113.437 11.8743 113.437 11.3182C113.437 10.7685 113.357 10.2875 113.197 9.87518C113.037 9.45969 112.801 9.1369 112.488 8.90678C112.174 8.67347 111.788 8.55682 111.327 8.55682C110.848 8.55682 110.448 8.67986 110.129 8.92596C109.812 9.16886 109.574 9.49964 109.415 9.91832C109.258 10.3338 109.18 10.8004 109.18 11.3182C109.18 11.8423 109.26 12.3185 109.419 12.7468C109.582 13.1719 109.822 13.5107 110.138 13.7631C110.458 14.0124 110.854 14.1371 111.327 14.1371ZM119.866 15.1534C119.156 15.1534 118.544 14.9968 118.029 14.6836C117.518 14.3672 117.123 13.9261 116.845 13.3604C116.57 12.7915 116.433 12.13 116.433 11.3757C116.433 10.6214 116.57 9.95668 116.845 9.38139C117.123 8.80291 117.51 8.35227 118.005 8.02947C118.504 7.70348 119.086 7.54048 119.75 7.54048C120.134 7.54048 120.513 7.6044 120.887 7.73224C121.261 7.86008 121.601 8.06783 121.908 8.35547C122.215 8.63991 122.459 9.01705 122.641 9.48686C122.823 9.95668 122.915 10.5352 122.915 11.2223V11.7017H117.238V10.7237H121.764C121.764 10.3082 121.681 9.9375 121.515 9.61151C121.352 9.28551 121.118 9.02823 120.815 8.83967C120.514 8.6511 120.16 8.55682 119.75 8.55682C119.3 8.55682 118.91 8.66868 118.581 8.8924C118.255 9.11293 118.004 9.40057 117.828 9.75533C117.652 10.1101 117.564 10.4904 117.564 10.8963V11.5483C117.564 12.1044 117.66 12.5758 117.852 12.9625C118.047 13.3461 118.317 13.6385 118.662 13.8398C119.007 14.038 119.409 14.1371 119.866 14.1371C120.163 14.1371 120.431 14.0955 120.671 14.0124C120.914 13.9261 121.123 13.7983 121.299 13.6289C121.475 13.4563 121.611 13.2422 121.706 12.9865L122.799 13.2933C122.684 13.6641 122.491 13.9901 122.219 14.2713C121.948 14.5494 121.612 14.7667 121.213 14.9233C120.813 15.0767 120.364 15.1534 119.866 15.1534ZM124.636 15V7.63636H125.729V8.74858H125.805C125.94 8.38423 126.182 8.0886 126.534 7.86168C126.886 7.63477 127.282 7.52131 127.723 7.52131C127.806 7.52131 127.91 7.5229 128.035 7.5261C128.159 7.5293 128.254 7.53409 128.317 7.54048V8.69105C128.279 8.68146 128.191 8.66708 128.054 8.6479C127.92 8.62553 127.777 8.61435 127.627 8.61435C127.269 8.61435 126.95 8.68945 126.668 8.83967C126.39 8.98668 126.17 9.19123 126.007 9.4533C125.847 9.71218 125.767 10.0078 125.767 10.3402V15H124.636ZM131.825 15.1726C131.359 15.1726 130.935 15.0847 130.555 14.9089C130.175 14.7299 129.873 14.4727 129.649 14.1371C129.425 13.7983 129.313 13.3892 129.313 12.9098C129.313 12.4879 129.396 12.146 129.563 11.8839C129.729 11.6186 129.951 11.4109 130.229 11.2607C130.507 11.1104 130.814 10.9986 131.15 10.9251C131.488 10.8484 131.829 10.7876 132.171 10.7429C132.618 10.6854 132.981 10.6422 133.259 10.6135C133.54 10.5815 133.745 10.5288 133.873 10.4553C134.004 10.3817 134.069 10.2539 134.069 10.0717V10.0334C134.069 9.56037 133.94 9.19283 133.681 8.93075C133.425 8.66868 133.037 8.53764 132.516 8.53764C131.976 8.53764 131.552 8.65589 131.245 8.8924C130.939 9.12891 130.723 9.38139 130.598 9.64986L129.524 9.26633C129.716 8.81889 129.972 8.47053 130.291 8.22124C130.614 7.96875 130.966 7.79297 131.346 7.69389C131.73 7.59162 132.107 7.54048 132.477 7.54048C132.714 7.54048 132.986 7.56925 133.292 7.62678C133.602 7.68111 133.901 7.79457 134.189 7.96715C134.48 8.13974 134.721 8.40021 134.913 8.74858C135.105 9.09695 135.2 9.56357 135.2 10.1484V15H134.069V14.0028H134.012C133.935 14.1626 133.807 14.3336 133.628 14.5158C133.449 14.698 133.211 14.853 132.914 14.9808C132.616 15.1087 132.254 15.1726 131.825 15.1726ZM131.998 14.1562C132.445 14.1562 132.823 14.0684 133.129 13.8926C133.439 13.7168 133.673 13.4899 133.829 13.2118C133.989 12.9338 134.069 12.6413 134.069 12.3345V11.299C134.021 11.3565 133.916 11.4093 133.753 11.4572C133.593 11.502 133.407 11.5419 133.197 11.5771C132.989 11.609 132.786 11.6378 132.588 11.6634C132.393 11.6857 132.235 11.7049 132.113 11.7209C131.819 11.7592 131.544 11.8216 131.289 11.9078C131.036 11.9909 130.831 12.1172 130.675 12.2866C130.521 12.4528 130.445 12.6797 130.445 12.9673C130.445 13.3604 130.59 13.6577 130.881 13.859C131.175 14.0572 131.547 14.1562 131.998 14.1562Z" fill="#A0A3B1"/>
<path d="M67.8958 5.18182H70.4558L73.1597 11.7784H73.2747L75.9786 5.18182H78.5386V15H76.5251V8.60955H76.4436L73.9027 14.9521H72.5316L69.9908 8.58558H69.9093V15H67.8958V5.18182ZM80.2105 15V7.63636H82.2528V15H80.2105ZM81.2364 6.68714C80.9328 6.68714 80.6723 6.58647 80.455 6.38512C80.2409 6.18057 80.1338 5.93608 80.1338 5.65163C80.1338 5.37038 80.2409 5.12908 80.455 4.92773C80.6723 4.72319 80.9328 4.62092 81.2364 4.62092C81.54 4.62092 81.7989 4.72319 82.0131 4.92773C82.2304 5.12908 82.339 5.37038 82.339 5.65163C82.339 5.93608 82.2304 6.18057 82.0131 6.38512C81.7989 6.58647 81.54 6.68714 81.2364 6.68714Z" fill="#F5C451"/>
<g style="mix-blend-mode:multiply">
<circle cx="10" cy="10" r="10" fill="#F5C451"/>
</g>
</svg>
